%TF.GenerationSoftware,KiCad,Pcbnew,(5.1.8)-1*%
%TF.CreationDate,2021-05-26T13:43:35+02:00*%
%TF.ProjectId,attnode_v3_micro,6174746e-6f64-4655-9f76-335f6d696372,rev?*%
%TF.SameCoordinates,Original*%
%TF.FileFunction,Copper,L2,Bot*%
%TF.FilePolarity,Positive*%
%FSLAX46Y46*%
G04 Gerber Fmt 4.6, Leading zero omitted, Abs format (unit mm)*
G04 Created by KiCad (PCBNEW (5.1.8)-1) date 2021-05-26 13:43:35*
%MOMM*%
%LPD*%
G01*
G04 APERTURE LIST*
%TA.AperFunction,ComponentPad*%
%ADD10O,1.700000X1.700000*%
%TD*%
%TA.AperFunction,ComponentPad*%
%ADD11R,1.700000X1.700000*%
%TD*%
%TA.AperFunction,ComponentPad*%
%ADD12R,1.350000X1.350000*%
%TD*%
%TA.AperFunction,ComponentPad*%
%ADD13O,1.350000X1.350000*%
%TD*%
%TA.AperFunction,ViaPad*%
%ADD14C,0.800000*%
%TD*%
%TA.AperFunction,Conductor*%
%ADD15C,0.250000*%
%TD*%
G04 APERTURE END LIST*
%TO.P,PRG1.1,1*%
%TO.N,RST*%
%TA.AperFunction,SMDPad,CuDef*%
G36*
G01*
X56880500Y-50350000D02*
X58179500Y-50350000D01*
G75*
G02*
X58280000Y-50450500I0J-100500D01*
G01*
X58280000Y-52749500D01*
G75*
G02*
X58179500Y-52850000I-100500J0D01*
G01*
X56880500Y-52850000D01*
G75*
G02*
X56780000Y-52749500I0J100500D01*
G01*
X56780000Y-50450500D01*
G75*
G02*
X56880500Y-50350000I100500J0D01*
G01*
G37*
%TD.AperFunction*%
%TD*%
%TO.P,PRG1.2,1*%
%TO.N,RX*%
%TA.AperFunction,SMDPad,CuDef*%
G36*
G01*
X59110500Y-50310000D02*
X60409500Y-50310000D01*
G75*
G02*
X60510000Y-50410500I0J-100500D01*
G01*
X60510000Y-52709500D01*
G75*
G02*
X60409500Y-52810000I-100500J0D01*
G01*
X59110500Y-52810000D01*
G75*
G02*
X59010000Y-52709500I0J100500D01*
G01*
X59010000Y-50410500D01*
G75*
G02*
X59110500Y-50310000I100500J0D01*
G01*
G37*
%TD.AperFunction*%
%TD*%
%TO.P,PRG1.3,1*%
%TO.N,TX*%
%TA.AperFunction,SMDPad,CuDef*%
G36*
G01*
X61300500Y-50310000D02*
X62599500Y-50310000D01*
G75*
G02*
X62700000Y-50410500I0J-100500D01*
G01*
X62700000Y-52709500D01*
G75*
G02*
X62599500Y-52810000I-100500J0D01*
G01*
X61300500Y-52810000D01*
G75*
G02*
X61200000Y-52709500I0J100500D01*
G01*
X61200000Y-50410500D01*
G75*
G02*
X61300500Y-50310000I100500J0D01*
G01*
G37*
%TD.AperFunction*%
%TD*%
D10*
%TO.P,I2C,4*%
%TO.N,SDA*%
X54330000Y-64930000D03*
%TO.P,I2C,3*%
%TO.N,SCL*%
X56870000Y-64930000D03*
%TO.P,I2C,2*%
%TO.N,GND*%
X59410000Y-64930000D03*
D11*
%TO.P,I2C,1*%
%TO.N,+3V3*%
X61950000Y-64930000D03*
%TD*%
%TO.P,C1,1*%
%TO.N,+3V3*%
%TA.AperFunction,SMDPad,CuDef*%
G36*
G01*
X59425000Y-61745000D02*
X59425000Y-62695000D01*
G75*
G02*
X59175000Y-62945000I-250000J0D01*
G01*
X58500000Y-62945000D01*
G75*
G02*
X58250000Y-62695000I0J250000D01*
G01*
X58250000Y-61745000D01*
G75*
G02*
X58500000Y-61495000I250000J0D01*
G01*
X59175000Y-61495000D01*
G75*
G02*
X59425000Y-61745000I0J-250000D01*
G01*
G37*
%TD.AperFunction*%
%TO.P,C1,2*%
%TO.N,GND*%
%TA.AperFunction,SMDPad,CuDef*%
G36*
G01*
X57350000Y-61745000D02*
X57350000Y-62695000D01*
G75*
G02*
X57100000Y-62945000I-250000J0D01*
G01*
X56425000Y-62945000D01*
G75*
G02*
X56175000Y-62695000I0J250000D01*
G01*
X56175000Y-61745000D01*
G75*
G02*
X56425000Y-61495000I250000J0D01*
G01*
X57100000Y-61495000D01*
G75*
G02*
X57350000Y-61745000I0J-250000D01*
G01*
G37*
%TD.AperFunction*%
%TD*%
%TO.P,C2,2*%
%TO.N,GND*%
%TA.AperFunction,SMDPad,CuDef*%
G36*
G01*
X57350000Y-59625000D02*
X57350000Y-60575000D01*
G75*
G02*
X57100000Y-60825000I-250000J0D01*
G01*
X56425000Y-60825000D01*
G75*
G02*
X56175000Y-60575000I0J250000D01*
G01*
X56175000Y-59625000D01*
G75*
G02*
X56425000Y-59375000I250000J0D01*
G01*
X57100000Y-59375000D01*
G75*
G02*
X57350000Y-59625000I0J-250000D01*
G01*
G37*
%TD.AperFunction*%
%TO.P,C2,1*%
%TO.N,+3V3*%
%TA.AperFunction,SMDPad,CuDef*%
G36*
G01*
X59425000Y-59625000D02*
X59425000Y-60575000D01*
G75*
G02*
X59175000Y-60825000I-250000J0D01*
G01*
X58500000Y-60825000D01*
G75*
G02*
X58250000Y-60575000I0J250000D01*
G01*
X58250000Y-59625000D01*
G75*
G02*
X58500000Y-59375000I250000J0D01*
G01*
X59175000Y-59375000D01*
G75*
G02*
X59425000Y-59625000I0J-250000D01*
G01*
G37*
%TD.AperFunction*%
%TD*%
%TO.P,D1,1*%
%TO.N,GND*%
%TA.AperFunction,SMDPad,CuDef*%
G36*
G01*
X52780000Y-51670001D02*
X52780000Y-50769999D01*
G75*
G02*
X53029999Y-50520000I249999J0D01*
G01*
X53680001Y-50520000D01*
G75*
G02*
X53930000Y-50769999I0J-249999D01*
G01*
X53930000Y-51670001D01*
G75*
G02*
X53680001Y-51920000I-249999J0D01*
G01*
X53029999Y-51920000D01*
G75*
G02*
X52780000Y-51670001I0J249999D01*
G01*
G37*
%TD.AperFunction*%
%TO.P,D1,2*%
%TO.N,Net-(D1-Pad2)*%
%TA.AperFunction,SMDPad,CuDef*%
G36*
G01*
X54830000Y-51670001D02*
X54830000Y-50769999D01*
G75*
G02*
X55079999Y-50520000I249999J0D01*
G01*
X55730001Y-50520000D01*
G75*
G02*
X55980000Y-50769999I0J-249999D01*
G01*
X55980000Y-51670001D01*
G75*
G02*
X55730001Y-51920000I-249999J0D01*
G01*
X55079999Y-51920000D01*
G75*
G02*
X54830000Y-51670001I0J249999D01*
G01*
G37*
%TD.AperFunction*%
%TD*%
D12*
%TO.P,J1,1*%
%TO.N,GND*%
X50800000Y-65000000D03*
D13*
%TO.P,J1,2*%
%TO.N,N/C*%
X50800000Y-63000000D03*
%TO.P,J1,3*%
X50800000Y-61000000D03*
%TO.P,J1,4*%
%TO.N,NSS*%
X50800000Y-59000000D03*
%TO.P,J1,5*%
%TO.N,SCK*%
X50800000Y-57000000D03*
%TO.P,J1,6*%
%TO.N,MOSI*%
X50800000Y-55000000D03*
%TO.P,J1,7*%
%TO.N,MISO*%
X50800000Y-53000000D03*
%TO.P,J1,8*%
%TO.N,GND*%
X50800000Y-51000000D03*
%TD*%
%TO.P,J2,8*%
%TO.N,N/C*%
X65200000Y-51000000D03*
%TO.P,J2,7*%
%TO.N,DIO1*%
X65200000Y-53000000D03*
%TO.P,J2,6*%
%TO.N,DIO0*%
X65200000Y-55000000D03*
%TO.P,J2,5*%
%TO.N,+3V3*%
X65200000Y-57000000D03*
%TO.P,J2,4*%
%TO.N,N/C*%
X65200000Y-59000000D03*
%TO.P,J2,3*%
X65200000Y-61000000D03*
%TO.P,J2,2*%
%TO.N,GND*%
X65200000Y-63000000D03*
D12*
%TO.P,J2,1*%
%TO.N,N/C*%
X65200000Y-65000000D03*
%TD*%
%TO.P,R1,1*%
%TO.N,NSS*%
%TA.AperFunction,SMDPad,CuDef*%
G36*
G01*
X56210000Y-58500001D02*
X56210000Y-57599999D01*
G75*
G02*
X56459999Y-57350000I249999J0D01*
G01*
X57160001Y-57350000D01*
G75*
G02*
X57410000Y-57599999I0J-249999D01*
G01*
X57410000Y-58500001D01*
G75*
G02*
X57160001Y-58750000I-249999J0D01*
G01*
X56459999Y-58750000D01*
G75*
G02*
X56210000Y-58500001I0J249999D01*
G01*
G37*
%TD.AperFunction*%
%TO.P,R1,2*%
%TO.N,+3V3*%
%TA.AperFunction,SMDPad,CuDef*%
G36*
G01*
X58210000Y-58500001D02*
X58210000Y-57599999D01*
G75*
G02*
X58459999Y-57350000I249999J0D01*
G01*
X59160001Y-57350000D01*
G75*
G02*
X59410000Y-57599999I0J-249999D01*
G01*
X59410000Y-58500001D01*
G75*
G02*
X59160001Y-58750000I-249999J0D01*
G01*
X58459999Y-58750000D01*
G75*
G02*
X58210000Y-58500001I0J249999D01*
G01*
G37*
%TD.AperFunction*%
%TD*%
%TO.P,R2,2*%
%TO.N,LED*%
%TA.AperFunction,SMDPad,CuDef*%
G36*
G01*
X58210000Y-56480001D02*
X58210000Y-55579999D01*
G75*
G02*
X58459999Y-55330000I249999J0D01*
G01*
X59160001Y-55330000D01*
G75*
G02*
X59410000Y-55579999I0J-249999D01*
G01*
X59410000Y-56480001D01*
G75*
G02*
X59160001Y-56730000I-249999J0D01*
G01*
X58459999Y-56730000D01*
G75*
G02*
X58210000Y-56480001I0J249999D01*
G01*
G37*
%TD.AperFunction*%
%TO.P,R2,1*%
%TO.N,Net-(D1-Pad2)*%
%TA.AperFunction,SMDPad,CuDef*%
G36*
G01*
X56210000Y-56480001D02*
X56210000Y-55579999D01*
G75*
G02*
X56459999Y-55330000I249999J0D01*
G01*
X57160001Y-55330000D01*
G75*
G02*
X57410000Y-55579999I0J-249999D01*
G01*
X57410000Y-56480001D01*
G75*
G02*
X57160001Y-56730000I-249999J0D01*
G01*
X56459999Y-56730000D01*
G75*
G02*
X56210000Y-56480001I0J249999D01*
G01*
G37*
%TD.AperFunction*%
%TD*%
D14*
%TO.N,+3V3*%
X58803750Y-62253750D03*
%TO.N,Net-(D1-Pad2)*%
X55410000Y-51230000D03*
X56760000Y-56140000D03*
%TO.N,RST*%
X54990000Y-54020000D03*
X57550000Y-51670000D03*
X54960000Y-55430000D03*
X53600000Y-57470000D03*
%TO.N,NSS*%
X56810000Y-58050000D03*
%TO.N,SCL*%
X55460000Y-63540000D03*
%TO.N,SDA*%
X63640000Y-50860000D03*
X60340000Y-60670000D03*
%TO.N,TX*%
X62620000Y-52190000D03*
%TO.N,RX*%
X59790000Y-51700000D03*
%TO.N,LED*%
X58900000Y-56170000D03*
%TD*%
D15*
%TO.N,GND*%
X56762500Y-62220000D02*
X56762500Y-60100000D01*
X50800000Y-64480002D02*
X50800000Y-65000000D01*
X53060002Y-62220000D02*
X50800000Y-64480002D01*
X56762500Y-62220000D02*
X53060002Y-62220000D01*
X61340000Y-63000000D02*
X59410000Y-64930000D01*
X65200000Y-63000000D02*
X61340000Y-63000000D01*
X57211810Y-62220000D02*
X56762500Y-62220000D01*
X59410000Y-64418190D02*
X57211810Y-62220000D01*
X59410000Y-64930000D02*
X59410000Y-64418190D01*
X57735010Y-59127490D02*
X56762500Y-60100000D01*
X57735010Y-55191840D02*
X57735010Y-59127490D01*
X50800000Y-51000000D02*
X53543170Y-51000000D01*
X53360000Y-53113002D02*
X53360000Y-51200000D01*
X55884990Y-55341820D02*
X56221820Y-55004990D01*
X55884990Y-56258012D02*
X55884990Y-55341820D01*
X53948001Y-58195001D02*
X55884990Y-56258012D01*
X56221820Y-55004990D02*
X57548160Y-55004990D01*
X53251999Y-58195001D02*
X53948001Y-58195001D01*
X52874999Y-57818001D02*
X53251999Y-58195001D01*
X52874999Y-53598003D02*
X52874999Y-57818001D01*
X57548160Y-55004990D02*
X57735010Y-55191840D01*
X53360000Y-53113002D02*
X52874999Y-53598003D01*
%TO.N,+3V3*%
X59980000Y-62220000D02*
X65200000Y-57000000D01*
X58837500Y-62220000D02*
X59980000Y-62220000D01*
X58837500Y-62220000D02*
X58837500Y-60100000D01*
X58837500Y-58077500D02*
X58810000Y-58050000D01*
X58837500Y-60100000D02*
X58837500Y-58077500D01*
X58803750Y-62253750D02*
X58837500Y-62220000D01*
%TO.N,RST*%
X53600000Y-56790000D02*
X54960000Y-55430000D01*
X53600000Y-57470000D02*
X53600000Y-56790000D01*
X57340000Y-51670000D02*
X57550000Y-51670000D01*
X54990000Y-54020000D02*
X57340000Y-51670000D01*
%TO.N,NSS*%
X55860000Y-59000000D02*
X56810000Y-58050000D01*
X50800000Y-59000000D02*
X55860000Y-59000000D01*
X56810000Y-58050000D02*
X56810000Y-58050000D01*
%TO.N,SCL*%
X56850000Y-64930000D02*
X55460000Y-63540000D01*
X56870000Y-64930000D02*
X56850000Y-64930000D01*
%TO.N,SDA*%
X60340000Y-60670000D02*
X60340000Y-60670000D01*
X60340000Y-60670000D02*
X63590000Y-57420000D01*
X63590000Y-50910000D02*
X63640000Y-50860000D01*
X63590000Y-57420000D02*
X63590000Y-50910000D01*
%TD*%
M02*
