%TF.GenerationSoftware,KiCad,Pcbnew,(5.1.8)-1*%
%TF.CreationDate,2021-05-10T08:32:55+02:00*%
%TF.ProjectId,attnode_v3_micro,6174746e-6f64-4655-9f76-335f6d696372,rev?*%
%TF.SameCoordinates,Original*%
%TF.FileFunction,Legend,Bot*%
%TF.FilePolarity,Positive*%
%FSLAX46Y46*%
G04 Gerber Fmt 4.6, Leading zero omitted, Abs format (unit mm)*
G04 Created by KiCad (PCBNEW (5.1.8)-1) date 2021-05-10 08:32:55*
%MOMM*%
%LPD*%
G01*
G04 APERTURE LIST*
%ADD10C,0.120000*%
%ADD11C,0.070000*%
%ADD12C,0.100000*%
%ADD13C,0.010000*%
%ADD14C,0.090000*%
%ADD15C,0.050000*%
%ADD16C,0.040000*%
%ADD17C,0.080000*%
G04 APERTURE END LIST*
D10*
X52198102Y-50730000D02*
G75*
G03*
X52198102Y-50730000I-78102J0D01*
G01*
X69440000Y-60430000D02*
G75*
G03*
X69440000Y-60430000I-78102J0D01*
G01*
D11*
X60600952Y-52836190D02*
X60315238Y-52836190D01*
X60458095Y-53336190D02*
X60458095Y-52836190D01*
X60196190Y-52836190D02*
X59862857Y-53336190D01*
X59862857Y-52836190D02*
X60196190Y-53336190D01*
X58053333Y-53336190D02*
X58220000Y-53098095D01*
X58339047Y-53336190D02*
X58339047Y-52836190D01*
X58148571Y-52836190D01*
X58100952Y-52860000D01*
X58077142Y-52883809D01*
X58053333Y-52931428D01*
X58053333Y-53002857D01*
X58077142Y-53050476D01*
X58100952Y-53074285D01*
X58148571Y-53098095D01*
X58339047Y-53098095D01*
X57886666Y-52836190D02*
X57553333Y-53336190D01*
X57553333Y-52836190D02*
X57886666Y-53336190D01*
X55983809Y-53336190D02*
X56150476Y-53098095D01*
X56269523Y-53336190D02*
X56269523Y-52836190D01*
X56079047Y-52836190D01*
X56031428Y-52860000D01*
X56007619Y-52883809D01*
X55983809Y-52931428D01*
X55983809Y-53002857D01*
X56007619Y-53050476D01*
X56031428Y-53074285D01*
X56079047Y-53098095D01*
X56269523Y-53098095D01*
X55793333Y-53312380D02*
X55721904Y-53336190D01*
X55602857Y-53336190D01*
X55555238Y-53312380D01*
X55531428Y-53288571D01*
X55507619Y-53240952D01*
X55507619Y-53193333D01*
X55531428Y-53145714D01*
X55555238Y-53121904D01*
X55602857Y-53098095D01*
X55698095Y-53074285D01*
X55745714Y-53050476D01*
X55769523Y-53026666D01*
X55793333Y-52979047D01*
X55793333Y-52931428D01*
X55769523Y-52883809D01*
X55745714Y-52860000D01*
X55698095Y-52836190D01*
X55579047Y-52836190D01*
X55507619Y-52860000D01*
X55364761Y-52836190D02*
X55079047Y-52836190D01*
X55221904Y-53336190D02*
X55221904Y-52836190D01*
D12*
X52462142Y-53370000D02*
X53362142Y-53370000D01*
X52933571Y-53798571D02*
X53019285Y-53841428D01*
X53062142Y-53927142D01*
X52933571Y-53370000D02*
X53019285Y-53412857D01*
X53062142Y-53498571D01*
X53062142Y-53670000D01*
X53019285Y-53755714D01*
X52933571Y-53798571D01*
X52462142Y-53798571D01*
X52719285Y-54312857D02*
X52719285Y-54998571D01*
X53062142Y-55812857D02*
X52590714Y-55812857D01*
X52505000Y-55770000D01*
X52462142Y-55684285D01*
X52462142Y-55512857D01*
X52505000Y-55427142D01*
X53019285Y-55812857D02*
X53062142Y-55727142D01*
X53062142Y-55512857D01*
X53019285Y-55427142D01*
X52933571Y-55384285D01*
X52847857Y-55384285D01*
X52762142Y-55427142D01*
X52719285Y-55512857D01*
X52719285Y-55727142D01*
X52676428Y-55812857D01*
X52462142Y-56112857D02*
X52462142Y-56455714D01*
X52162142Y-56241428D02*
X52933571Y-56241428D01*
X53019285Y-56284285D01*
X53062142Y-56370000D01*
X53062142Y-56455714D01*
X52462142Y-56627142D02*
X52462142Y-56970000D01*
X52162142Y-56755714D02*
X52933571Y-56755714D01*
X53019285Y-56798571D01*
X53062142Y-56884285D01*
X53062142Y-56970000D01*
X52462142Y-57270000D02*
X53062142Y-57270000D01*
X52547857Y-57270000D02*
X52505000Y-57312857D01*
X52462142Y-57398571D01*
X52462142Y-57527142D01*
X52505000Y-57612857D01*
X52590714Y-57655714D01*
X53062142Y-57655714D01*
X53062142Y-58212857D02*
X53019285Y-58127142D01*
X52976428Y-58084285D01*
X52890714Y-58041428D01*
X52633571Y-58041428D01*
X52547857Y-58084285D01*
X52505000Y-58127142D01*
X52462142Y-58212857D01*
X52462142Y-58341428D01*
X52505000Y-58427142D01*
X52547857Y-58470000D01*
X52633571Y-58512857D01*
X52890714Y-58512857D01*
X52976428Y-58470000D01*
X53019285Y-58427142D01*
X53062142Y-58341428D01*
X53062142Y-58212857D01*
X52976428Y-58898571D02*
X53019285Y-58941428D01*
X53062142Y-58898571D01*
X53019285Y-58855714D01*
X52976428Y-58898571D01*
X53062142Y-58898571D01*
X53062142Y-59712857D02*
X52162142Y-59712857D01*
X53019285Y-59712857D02*
X53062142Y-59627142D01*
X53062142Y-59455714D01*
X53019285Y-59370000D01*
X52976428Y-59327142D01*
X52890714Y-59284285D01*
X52633571Y-59284285D01*
X52547857Y-59327142D01*
X52505000Y-59370000D01*
X52462142Y-59455714D01*
X52462142Y-59627142D01*
X52505000Y-59712857D01*
X53019285Y-60484285D02*
X53062142Y-60398571D01*
X53062142Y-60227142D01*
X53019285Y-60141428D01*
X52933571Y-60098571D01*
X52590714Y-60098571D01*
X52505000Y-60141428D01*
X52462142Y-60227142D01*
X52462142Y-60398571D01*
X52505000Y-60484285D01*
X52590714Y-60527142D01*
X52676428Y-60527142D01*
X52762142Y-60098571D01*
X53612142Y-55898571D02*
X54512142Y-56198571D01*
X53612142Y-56498571D01*
X53612142Y-56712857D02*
X53612142Y-57270000D01*
X53955000Y-56970000D01*
X53955000Y-57098571D01*
X53997857Y-57184285D01*
X54040714Y-57227142D01*
X54126428Y-57270000D01*
X54340714Y-57270000D01*
X54426428Y-57227142D01*
X54469285Y-57184285D01*
X54512142Y-57098571D01*
X54512142Y-56841428D01*
X54469285Y-56755714D01*
X54426428Y-56712857D01*
X54426428Y-57655714D02*
X54469285Y-57698571D01*
X54512142Y-57655714D01*
X54469285Y-57612857D01*
X54426428Y-57655714D01*
X54512142Y-57655714D01*
X53612142Y-58255714D02*
X53612142Y-58341428D01*
X53655000Y-58427142D01*
X53697857Y-58470000D01*
X53783571Y-58512857D01*
X53955000Y-58555714D01*
X54169285Y-58555714D01*
X54340714Y-58512857D01*
X54426428Y-58470000D01*
X54469285Y-58427142D01*
X54512142Y-58341428D01*
X54512142Y-58255714D01*
X54469285Y-58170000D01*
X54426428Y-58127142D01*
X54340714Y-58084285D01*
X54169285Y-58041428D01*
X53955000Y-58041428D01*
X53783571Y-58084285D01*
X53697857Y-58127142D01*
X53655000Y-58170000D01*
X53612142Y-58255714D01*
D13*
%TO.C,REF\u002A\u002A*%
G36*
X58972348Y-57043910D02*
G01*
X58972778Y-57122454D01*
X58973942Y-57179298D01*
X58976207Y-57218105D01*
X58979940Y-57242538D01*
X58985506Y-57256262D01*
X58993273Y-57262940D01*
X59003605Y-57266236D01*
X59004943Y-57266556D01*
X59029079Y-57271562D01*
X59076701Y-57280829D01*
X59142741Y-57293392D01*
X59222128Y-57308287D01*
X59309796Y-57324551D01*
X59312875Y-57325119D01*
X59398789Y-57341410D01*
X59474696Y-57356652D01*
X59536045Y-57369861D01*
X59578282Y-57380054D01*
X59596855Y-57386248D01*
X59597184Y-57386543D01*
X59606253Y-57404788D01*
X59621367Y-57442405D01*
X59639262Y-57491271D01*
X59639358Y-57491543D01*
X59662493Y-57553093D01*
X59691965Y-57625657D01*
X59721597Y-57694057D01*
X59723062Y-57697294D01*
X59773626Y-57808702D01*
X59605160Y-58055399D01*
X59553803Y-58131077D01*
X59507889Y-58199631D01*
X59470030Y-58257088D01*
X59442837Y-58299476D01*
X59428921Y-58322825D01*
X59427889Y-58325042D01*
X59432484Y-58342010D01*
X59454655Y-58373701D01*
X59495447Y-58421352D01*
X59555905Y-58486198D01*
X59620227Y-58552397D01*
X59683612Y-58616214D01*
X59741451Y-58673329D01*
X59790175Y-58720305D01*
X59826210Y-58753703D01*
X59845984Y-58770085D01*
X59847002Y-58770694D01*
X59860572Y-58772505D01*
X59882733Y-58765683D01*
X59916478Y-58748540D01*
X59964800Y-58719393D01*
X60030692Y-58676555D01*
X60115517Y-58619448D01*
X60190177Y-58568766D01*
X60257140Y-58523461D01*
X60312516Y-58486150D01*
X60352420Y-58459452D01*
X60372962Y-58445985D01*
X60374356Y-58445137D01*
X60394038Y-58446781D01*
X60432293Y-58459245D01*
X60481889Y-58480048D01*
X60497728Y-58487462D01*
X60568290Y-58519814D01*
X60648353Y-58554328D01*
X60717629Y-58582365D01*
X60769045Y-58602568D01*
X60808119Y-58618615D01*
X60828541Y-58627888D01*
X60830114Y-58629041D01*
X60832721Y-58646096D01*
X60839863Y-58686298D01*
X60850523Y-58744302D01*
X60863685Y-58814763D01*
X60878333Y-58892335D01*
X60893449Y-58971672D01*
X60908018Y-59047431D01*
X60921022Y-59114264D01*
X60931445Y-59166828D01*
X60938270Y-59199776D01*
X60940199Y-59207857D01*
X60944962Y-59216205D01*
X60955718Y-59222506D01*
X60976098Y-59227045D01*
X61009734Y-59230104D01*
X61060255Y-59231967D01*
X61131292Y-59232918D01*
X61226476Y-59233240D01*
X61265492Y-59233257D01*
X61582799Y-59233257D01*
X61597839Y-59157057D01*
X61605995Y-59114663D01*
X61617899Y-59051400D01*
X61632116Y-58974962D01*
X61647210Y-58893043D01*
X61651355Y-58870400D01*
X61666053Y-58794806D01*
X61680505Y-58728953D01*
X61693375Y-58678366D01*
X61703322Y-58648574D01*
X61706287Y-58643612D01*
X61727283Y-58631426D01*
X61767967Y-58613953D01*
X61820322Y-58594577D01*
X61831600Y-58590734D01*
X61901523Y-58565339D01*
X61980418Y-58533817D01*
X62051266Y-58502969D01*
X62051595Y-58502817D01*
X62162733Y-58451447D01*
X62411253Y-58620399D01*
X62659772Y-58789352D01*
X62877058Y-58572429D01*
X62941726Y-58506819D01*
X62998733Y-58446979D01*
X63045033Y-58396267D01*
X63077584Y-58358046D01*
X63093343Y-58335675D01*
X63094343Y-58332466D01*
X63086469Y-58313626D01*
X63064578Y-58275180D01*
X63031267Y-58221330D01*
X62989131Y-58156276D01*
X62941943Y-58085940D01*
X62893810Y-58014555D01*
X62851928Y-57950908D01*
X62818871Y-57899041D01*
X62797218Y-57862995D01*
X62789543Y-57846867D01*
X62796037Y-57827189D01*
X62813150Y-57789875D01*
X62837326Y-57742621D01*
X62840013Y-57737612D01*
X62871927Y-57673977D01*
X62887579Y-57630341D01*
X62887745Y-57603202D01*
X62873204Y-57589057D01*
X62873000Y-57588975D01*
X62855779Y-57581905D01*
X62814899Y-57565042D01*
X62753525Y-57539695D01*
X62674819Y-57507171D01*
X62581947Y-57468778D01*
X62478072Y-57425822D01*
X62377502Y-57384222D01*
X62266516Y-57338504D01*
X62163703Y-57296526D01*
X62072215Y-57259548D01*
X61995201Y-57228827D01*
X61935815Y-57205622D01*
X61897209Y-57191190D01*
X61882800Y-57186743D01*
X61866272Y-57197896D01*
X61839930Y-57227069D01*
X61810887Y-57265971D01*
X61719039Y-57376757D01*
X61613759Y-57463351D01*
X61497266Y-57524716D01*
X61371776Y-57559815D01*
X61239507Y-57567608D01*
X61178457Y-57561943D01*
X61051795Y-57531078D01*
X60939941Y-57477920D01*
X60844001Y-57405767D01*
X60765076Y-57317917D01*
X60704270Y-57217665D01*
X60662687Y-57108310D01*
X60641428Y-56993147D01*
X60641599Y-56875475D01*
X60664301Y-56758590D01*
X60710638Y-56645789D01*
X60781713Y-56540369D01*
X60821911Y-56496368D01*
X60925129Y-56411979D01*
X61037925Y-56353222D01*
X61157010Y-56319704D01*
X61279095Y-56311035D01*
X61400893Y-56326823D01*
X61519116Y-56366678D01*
X61630475Y-56430207D01*
X61731684Y-56517021D01*
X61810887Y-56614029D01*
X61841162Y-56654437D01*
X61867219Y-56682982D01*
X61882825Y-56693257D01*
X61899843Y-56687877D01*
X61940500Y-56672575D01*
X62001642Y-56648612D01*
X62080119Y-56617244D01*
X62172780Y-56579732D01*
X62276472Y-56537333D01*
X62377526Y-56495663D01*
X62488607Y-56449690D01*
X62591541Y-56407107D01*
X62683165Y-56369221D01*
X62760316Y-56337340D01*
X62819831Y-56312771D01*
X62858544Y-56296820D01*
X62873000Y-56290910D01*
X62887685Y-56276948D01*
X62887642Y-56249940D01*
X62872099Y-56206413D01*
X62840284Y-56142890D01*
X62840013Y-56142388D01*
X62815323Y-56094560D01*
X62797338Y-56055897D01*
X62789614Y-56034095D01*
X62789543Y-56033133D01*
X62797378Y-56016721D01*
X62819165Y-55980487D01*
X62852328Y-55928474D01*
X62894291Y-55864725D01*
X62941943Y-55794060D01*
X62990191Y-55722116D01*
X63032151Y-55657274D01*
X63065227Y-55603735D01*
X63086821Y-55565697D01*
X63094343Y-55547533D01*
X63084457Y-55530808D01*
X63056826Y-55497180D01*
X63014495Y-55450010D01*
X62960505Y-55392658D01*
X62897899Y-55328484D01*
X62876983Y-55307497D01*
X62659623Y-55090499D01*
X62417220Y-55255668D01*
X62342781Y-55305864D01*
X62275972Y-55349919D01*
X62220665Y-55385362D01*
X62180729Y-55409719D01*
X62160036Y-55420522D01*
X62158563Y-55420838D01*
X62139058Y-55415143D01*
X62099822Y-55399826D01*
X62047430Y-55377537D01*
X62012355Y-55361893D01*
X61945201Y-55332641D01*
X61877358Y-55305094D01*
X61820034Y-55283737D01*
X61802572Y-55277935D01*
X61755938Y-55261452D01*
X61719905Y-55245340D01*
X61706287Y-55236490D01*
X61697952Y-55216960D01*
X61686137Y-55174334D01*
X61672181Y-55114145D01*
X61657422Y-55041922D01*
X61651355Y-55009600D01*
X61636273Y-54927522D01*
X61621669Y-54848795D01*
X61608980Y-54781109D01*
X61599642Y-54732160D01*
X61597839Y-54722943D01*
X61582799Y-54646743D01*
X61265492Y-54646743D01*
X61161154Y-54646914D01*
X61082213Y-54647616D01*
X61025038Y-54649134D01*
X60985999Y-54651749D01*
X60961465Y-54655746D01*
X60947805Y-54661409D01*
X60941389Y-54669020D01*
X60940199Y-54672143D01*
X60935980Y-54690978D01*
X60927562Y-54732588D01*
X60915961Y-54791630D01*
X60902195Y-54862757D01*
X60887280Y-54940625D01*
X60872232Y-55019887D01*
X60858069Y-55095198D01*
X60845806Y-55161213D01*
X60836461Y-55212587D01*
X60831050Y-55243975D01*
X60830114Y-55250959D01*
X60817596Y-55257285D01*
X60784246Y-55271290D01*
X60736377Y-55290355D01*
X60717629Y-55297634D01*
X60645195Y-55326996D01*
X60565170Y-55361571D01*
X60497728Y-55392537D01*
X60446159Y-55415323D01*
X60403785Y-55430482D01*
X60377834Y-55435542D01*
X60374356Y-55434736D01*
X60357936Y-55424041D01*
X60321417Y-55399620D01*
X60268687Y-55364095D01*
X60203635Y-55320087D01*
X60130151Y-55270217D01*
X60115645Y-55260356D01*
X60029704Y-55202492D01*
X59964261Y-55159956D01*
X59916304Y-55131054D01*
X59882820Y-55114090D01*
X59860795Y-55107367D01*
X59847217Y-55109190D01*
X59847131Y-55109236D01*
X59829297Y-55123586D01*
X59794817Y-55155323D01*
X59747268Y-55201010D01*
X59690222Y-55257204D01*
X59627255Y-55320468D01*
X59620227Y-55327602D01*
X59543020Y-55407330D01*
X59486330Y-55468857D01*
X59449110Y-55513421D01*
X59430315Y-55542257D01*
X59427889Y-55554958D01*
X59438471Y-55573494D01*
X59462916Y-55611961D01*
X59498612Y-55666386D01*
X59542947Y-55732798D01*
X59593311Y-55807225D01*
X59605160Y-55824601D01*
X59773626Y-56071297D01*
X59723062Y-56182706D01*
X59693595Y-56250457D01*
X59663959Y-56323183D01*
X59640330Y-56385703D01*
X59639358Y-56388457D01*
X59621457Y-56437360D01*
X59606320Y-56475057D01*
X59597210Y-56493425D01*
X59597184Y-56493456D01*
X59580717Y-56499285D01*
X59540219Y-56509192D01*
X59480242Y-56522195D01*
X59405340Y-56537309D01*
X59320064Y-56553552D01*
X59312875Y-56554881D01*
X59225014Y-56571175D01*
X59145260Y-56586133D01*
X59078681Y-56598791D01*
X59030347Y-56608186D01*
X59005325Y-56613354D01*
X59004943Y-56613444D01*
X58994299Y-56616589D01*
X58986262Y-56622704D01*
X58980467Y-56635453D01*
X58976547Y-56658500D01*
X58974135Y-56695509D01*
X58972865Y-56750144D01*
X58972371Y-56826067D01*
X58972286Y-56926944D01*
X58972286Y-56940000D01*
X58972348Y-57043910D01*
G37*
X58972348Y-57043910D02*
X58972778Y-57122454D01*
X58973942Y-57179298D01*
X58976207Y-57218105D01*
X58979940Y-57242538D01*
X58985506Y-57256262D01*
X58993273Y-57262940D01*
X59003605Y-57266236D01*
X59004943Y-57266556D01*
X59029079Y-57271562D01*
X59076701Y-57280829D01*
X59142741Y-57293392D01*
X59222128Y-57308287D01*
X59309796Y-57324551D01*
X59312875Y-57325119D01*
X59398789Y-57341410D01*
X59474696Y-57356652D01*
X59536045Y-57369861D01*
X59578282Y-57380054D01*
X59596855Y-57386248D01*
X59597184Y-57386543D01*
X59606253Y-57404788D01*
X59621367Y-57442405D01*
X59639262Y-57491271D01*
X59639358Y-57491543D01*
X59662493Y-57553093D01*
X59691965Y-57625657D01*
X59721597Y-57694057D01*
X59723062Y-57697294D01*
X59773626Y-57808702D01*
X59605160Y-58055399D01*
X59553803Y-58131077D01*
X59507889Y-58199631D01*
X59470030Y-58257088D01*
X59442837Y-58299476D01*
X59428921Y-58322825D01*
X59427889Y-58325042D01*
X59432484Y-58342010D01*
X59454655Y-58373701D01*
X59495447Y-58421352D01*
X59555905Y-58486198D01*
X59620227Y-58552397D01*
X59683612Y-58616214D01*
X59741451Y-58673329D01*
X59790175Y-58720305D01*
X59826210Y-58753703D01*
X59845984Y-58770085D01*
X59847002Y-58770694D01*
X59860572Y-58772505D01*
X59882733Y-58765683D01*
X59916478Y-58748540D01*
X59964800Y-58719393D01*
X60030692Y-58676555D01*
X60115517Y-58619448D01*
X60190177Y-58568766D01*
X60257140Y-58523461D01*
X60312516Y-58486150D01*
X60352420Y-58459452D01*
X60372962Y-58445985D01*
X60374356Y-58445137D01*
X60394038Y-58446781D01*
X60432293Y-58459245D01*
X60481889Y-58480048D01*
X60497728Y-58487462D01*
X60568290Y-58519814D01*
X60648353Y-58554328D01*
X60717629Y-58582365D01*
X60769045Y-58602568D01*
X60808119Y-58618615D01*
X60828541Y-58627888D01*
X60830114Y-58629041D01*
X60832721Y-58646096D01*
X60839863Y-58686298D01*
X60850523Y-58744302D01*
X60863685Y-58814763D01*
X60878333Y-58892335D01*
X60893449Y-58971672D01*
X60908018Y-59047431D01*
X60921022Y-59114264D01*
X60931445Y-59166828D01*
X60938270Y-59199776D01*
X60940199Y-59207857D01*
X60944962Y-59216205D01*
X60955718Y-59222506D01*
X60976098Y-59227045D01*
X61009734Y-59230104D01*
X61060255Y-59231967D01*
X61131292Y-59232918D01*
X61226476Y-59233240D01*
X61265492Y-59233257D01*
X61582799Y-59233257D01*
X61597839Y-59157057D01*
X61605995Y-59114663D01*
X61617899Y-59051400D01*
X61632116Y-58974962D01*
X61647210Y-58893043D01*
X61651355Y-58870400D01*
X61666053Y-58794806D01*
X61680505Y-58728953D01*
X61693375Y-58678366D01*
X61703322Y-58648574D01*
X61706287Y-58643612D01*
X61727283Y-58631426D01*
X61767967Y-58613953D01*
X61820322Y-58594577D01*
X61831600Y-58590734D01*
X61901523Y-58565339D01*
X61980418Y-58533817D01*
X62051266Y-58502969D01*
X62051595Y-58502817D01*
X62162733Y-58451447D01*
X62411253Y-58620399D01*
X62659772Y-58789352D01*
X62877058Y-58572429D01*
X62941726Y-58506819D01*
X62998733Y-58446979D01*
X63045033Y-58396267D01*
X63077584Y-58358046D01*
X63093343Y-58335675D01*
X63094343Y-58332466D01*
X63086469Y-58313626D01*
X63064578Y-58275180D01*
X63031267Y-58221330D01*
X62989131Y-58156276D01*
X62941943Y-58085940D01*
X62893810Y-58014555D01*
X62851928Y-57950908D01*
X62818871Y-57899041D01*
X62797218Y-57862995D01*
X62789543Y-57846867D01*
X62796037Y-57827189D01*
X62813150Y-57789875D01*
X62837326Y-57742621D01*
X62840013Y-57737612D01*
X62871927Y-57673977D01*
X62887579Y-57630341D01*
X62887745Y-57603202D01*
X62873204Y-57589057D01*
X62873000Y-57588975D01*
X62855779Y-57581905D01*
X62814899Y-57565042D01*
X62753525Y-57539695D01*
X62674819Y-57507171D01*
X62581947Y-57468778D01*
X62478072Y-57425822D01*
X62377502Y-57384222D01*
X62266516Y-57338504D01*
X62163703Y-57296526D01*
X62072215Y-57259548D01*
X61995201Y-57228827D01*
X61935815Y-57205622D01*
X61897209Y-57191190D01*
X61882800Y-57186743D01*
X61866272Y-57197896D01*
X61839930Y-57227069D01*
X61810887Y-57265971D01*
X61719039Y-57376757D01*
X61613759Y-57463351D01*
X61497266Y-57524716D01*
X61371776Y-57559815D01*
X61239507Y-57567608D01*
X61178457Y-57561943D01*
X61051795Y-57531078D01*
X60939941Y-57477920D01*
X60844001Y-57405767D01*
X60765076Y-57317917D01*
X60704270Y-57217665D01*
X60662687Y-57108310D01*
X60641428Y-56993147D01*
X60641599Y-56875475D01*
X60664301Y-56758590D01*
X60710638Y-56645789D01*
X60781713Y-56540369D01*
X60821911Y-56496368D01*
X60925129Y-56411979D01*
X61037925Y-56353222D01*
X61157010Y-56319704D01*
X61279095Y-56311035D01*
X61400893Y-56326823D01*
X61519116Y-56366678D01*
X61630475Y-56430207D01*
X61731684Y-56517021D01*
X61810887Y-56614029D01*
X61841162Y-56654437D01*
X61867219Y-56682982D01*
X61882825Y-56693257D01*
X61899843Y-56687877D01*
X61940500Y-56672575D01*
X62001642Y-56648612D01*
X62080119Y-56617244D01*
X62172780Y-56579732D01*
X62276472Y-56537333D01*
X62377526Y-56495663D01*
X62488607Y-56449690D01*
X62591541Y-56407107D01*
X62683165Y-56369221D01*
X62760316Y-56337340D01*
X62819831Y-56312771D01*
X62858544Y-56296820D01*
X62873000Y-56290910D01*
X62887685Y-56276948D01*
X62887642Y-56249940D01*
X62872099Y-56206413D01*
X62840284Y-56142890D01*
X62840013Y-56142388D01*
X62815323Y-56094560D01*
X62797338Y-56055897D01*
X62789614Y-56034095D01*
X62789543Y-56033133D01*
X62797378Y-56016721D01*
X62819165Y-55980487D01*
X62852328Y-55928474D01*
X62894291Y-55864725D01*
X62941943Y-55794060D01*
X62990191Y-55722116D01*
X63032151Y-55657274D01*
X63065227Y-55603735D01*
X63086821Y-55565697D01*
X63094343Y-55547533D01*
X63084457Y-55530808D01*
X63056826Y-55497180D01*
X63014495Y-55450010D01*
X62960505Y-55392658D01*
X62897899Y-55328484D01*
X62876983Y-55307497D01*
X62659623Y-55090499D01*
X62417220Y-55255668D01*
X62342781Y-55305864D01*
X62275972Y-55349919D01*
X62220665Y-55385362D01*
X62180729Y-55409719D01*
X62160036Y-55420522D01*
X62158563Y-55420838D01*
X62139058Y-55415143D01*
X62099822Y-55399826D01*
X62047430Y-55377537D01*
X62012355Y-55361893D01*
X61945201Y-55332641D01*
X61877358Y-55305094D01*
X61820034Y-55283737D01*
X61802572Y-55277935D01*
X61755938Y-55261452D01*
X61719905Y-55245340D01*
X61706287Y-55236490D01*
X61697952Y-55216960D01*
X61686137Y-55174334D01*
X61672181Y-55114145D01*
X61657422Y-55041922D01*
X61651355Y-55009600D01*
X61636273Y-54927522D01*
X61621669Y-54848795D01*
X61608980Y-54781109D01*
X61599642Y-54732160D01*
X61597839Y-54722943D01*
X61582799Y-54646743D01*
X61265492Y-54646743D01*
X61161154Y-54646914D01*
X61082213Y-54647616D01*
X61025038Y-54649134D01*
X60985999Y-54651749D01*
X60961465Y-54655746D01*
X60947805Y-54661409D01*
X60941389Y-54669020D01*
X60940199Y-54672143D01*
X60935980Y-54690978D01*
X60927562Y-54732588D01*
X60915961Y-54791630D01*
X60902195Y-54862757D01*
X60887280Y-54940625D01*
X60872232Y-55019887D01*
X60858069Y-55095198D01*
X60845806Y-55161213D01*
X60836461Y-55212587D01*
X60831050Y-55243975D01*
X60830114Y-55250959D01*
X60817596Y-55257285D01*
X60784246Y-55271290D01*
X60736377Y-55290355D01*
X60717629Y-55297634D01*
X60645195Y-55326996D01*
X60565170Y-55361571D01*
X60497728Y-55392537D01*
X60446159Y-55415323D01*
X60403785Y-55430482D01*
X60377834Y-55435542D01*
X60374356Y-55434736D01*
X60357936Y-55424041D01*
X60321417Y-55399620D01*
X60268687Y-55364095D01*
X60203635Y-55320087D01*
X60130151Y-55270217D01*
X60115645Y-55260356D01*
X60029704Y-55202492D01*
X59964261Y-55159956D01*
X59916304Y-55131054D01*
X59882820Y-55114090D01*
X59860795Y-55107367D01*
X59847217Y-55109190D01*
X59847131Y-55109236D01*
X59829297Y-55123586D01*
X59794817Y-55155323D01*
X59747268Y-55201010D01*
X59690222Y-55257204D01*
X59627255Y-55320468D01*
X59620227Y-55327602D01*
X59543020Y-55407330D01*
X59486330Y-55468857D01*
X59449110Y-55513421D01*
X59430315Y-55542257D01*
X59427889Y-55554958D01*
X59438471Y-55573494D01*
X59462916Y-55611961D01*
X59498612Y-55666386D01*
X59542947Y-55732798D01*
X59593311Y-55807225D01*
X59605160Y-55824601D01*
X59773626Y-56071297D01*
X59723062Y-56182706D01*
X59693595Y-56250457D01*
X59663959Y-56323183D01*
X59640330Y-56385703D01*
X59639358Y-56388457D01*
X59621457Y-56437360D01*
X59606320Y-56475057D01*
X59597210Y-56493425D01*
X59597184Y-56493456D01*
X59580717Y-56499285D01*
X59540219Y-56509192D01*
X59480242Y-56522195D01*
X59405340Y-56537309D01*
X59320064Y-56553552D01*
X59312875Y-56554881D01*
X59225014Y-56571175D01*
X59145260Y-56586133D01*
X59078681Y-56598791D01*
X59030347Y-56608186D01*
X59005325Y-56613354D01*
X59004943Y-56613444D01*
X58994299Y-56616589D01*
X58986262Y-56622704D01*
X58980467Y-56635453D01*
X58976547Y-56658500D01*
X58974135Y-56695509D01*
X58972865Y-56750144D01*
X58972371Y-56826067D01*
X58972286Y-56926944D01*
X58972286Y-56940000D01*
X58972348Y-57043910D01*
G36*
X63696966Y-60093595D02*
G01*
X63734497Y-60151021D01*
X63768096Y-60178719D01*
X63829064Y-60200662D01*
X63877308Y-60202405D01*
X63941816Y-60198457D01*
X64006934Y-60049686D01*
X64040202Y-59977349D01*
X64066964Y-59930084D01*
X64090144Y-59905507D01*
X64112667Y-59901237D01*
X64137455Y-59914889D01*
X64153886Y-59929943D01*
X64180235Y-59973746D01*
X64182081Y-60021389D01*
X64161546Y-60065145D01*
X64120752Y-60097289D01*
X64106347Y-60103038D01*
X64061356Y-60130576D01*
X64042182Y-60162258D01*
X64025779Y-60205714D01*
X64087966Y-60205714D01*
X64130283Y-60201872D01*
X64165969Y-60186823D01*
X64206943Y-60155280D01*
X64212267Y-60150592D01*
X64248720Y-60115506D01*
X64268283Y-60085347D01*
X64277283Y-60047615D01*
X64280230Y-60016335D01*
X64280965Y-59960385D01*
X64271660Y-59920555D01*
X64257846Y-59895708D01*
X64227467Y-59856656D01*
X64194613Y-59829625D01*
X64153294Y-59812517D01*
X64097521Y-59803238D01*
X64021305Y-59799693D01*
X63982622Y-59799410D01*
X63936247Y-59800372D01*
X63936247Y-59888007D01*
X63961126Y-59889023D01*
X63965200Y-59891556D01*
X63959665Y-59908274D01*
X63945017Y-59944249D01*
X63924190Y-59992331D01*
X63919714Y-60002386D01*
X63888814Y-60063152D01*
X63861657Y-60096632D01*
X63836220Y-60103990D01*
X63810481Y-60086391D01*
X63799109Y-60071856D01*
X63776364Y-60019410D01*
X63780122Y-59970322D01*
X63807884Y-59929227D01*
X63857152Y-59900758D01*
X63896257Y-59891631D01*
X63936247Y-59888007D01*
X63936247Y-59800372D01*
X63892249Y-59801285D01*
X63825384Y-59808196D01*
X63776695Y-59821884D01*
X63740849Y-59844096D01*
X63712513Y-59876574D01*
X63703355Y-59890733D01*
X63679507Y-59955053D01*
X63678006Y-60025473D01*
X63696966Y-60093595D01*
G37*
X63696966Y-60093595D02*
X63734497Y-60151021D01*
X63768096Y-60178719D01*
X63829064Y-60200662D01*
X63877308Y-60202405D01*
X63941816Y-60198457D01*
X64006934Y-60049686D01*
X64040202Y-59977349D01*
X64066964Y-59930084D01*
X64090144Y-59905507D01*
X64112667Y-59901237D01*
X64137455Y-59914889D01*
X64153886Y-59929943D01*
X64180235Y-59973746D01*
X64182081Y-60021389D01*
X64161546Y-60065145D01*
X64120752Y-60097289D01*
X64106347Y-60103038D01*
X64061356Y-60130576D01*
X64042182Y-60162258D01*
X64025779Y-60205714D01*
X64087966Y-60205714D01*
X64130283Y-60201872D01*
X64165969Y-60186823D01*
X64206943Y-60155280D01*
X64212267Y-60150592D01*
X64248720Y-60115506D01*
X64268283Y-60085347D01*
X64277283Y-60047615D01*
X64280230Y-60016335D01*
X64280965Y-59960385D01*
X64271660Y-59920555D01*
X64257846Y-59895708D01*
X64227467Y-59856656D01*
X64194613Y-59829625D01*
X64153294Y-59812517D01*
X64097521Y-59803238D01*
X64021305Y-59799693D01*
X63982622Y-59799410D01*
X63936247Y-59800372D01*
X63936247Y-59888007D01*
X63961126Y-59889023D01*
X63965200Y-59891556D01*
X63959665Y-59908274D01*
X63945017Y-59944249D01*
X63924190Y-59992331D01*
X63919714Y-60002386D01*
X63888814Y-60063152D01*
X63861657Y-60096632D01*
X63836220Y-60103990D01*
X63810481Y-60086391D01*
X63799109Y-60071856D01*
X63776364Y-60019410D01*
X63780122Y-59970322D01*
X63807884Y-59929227D01*
X63857152Y-59900758D01*
X63896257Y-59891631D01*
X63936247Y-59888007D01*
X63936247Y-59800372D01*
X63892249Y-59801285D01*
X63825384Y-59808196D01*
X63776695Y-59821884D01*
X63740849Y-59844096D01*
X63712513Y-59876574D01*
X63703355Y-59890733D01*
X63679507Y-59955053D01*
X63678006Y-60025473D01*
X63696966Y-60093595D01*
G36*
X63688752Y-59592600D02*
G01*
X63696334Y-59609948D01*
X63729128Y-59651356D01*
X63776547Y-59686765D01*
X63827151Y-59708664D01*
X63852098Y-59712229D01*
X63886927Y-59700279D01*
X63905357Y-59674067D01*
X63916516Y-59645964D01*
X63918572Y-59633095D01*
X63903649Y-59626829D01*
X63871175Y-59614456D01*
X63856502Y-59609028D01*
X63805744Y-59578590D01*
X63780427Y-59534520D01*
X63781206Y-59478010D01*
X63782203Y-59473825D01*
X63796507Y-59443655D01*
X63824393Y-59421476D01*
X63869287Y-59406327D01*
X63934615Y-59397250D01*
X64023804Y-59393286D01*
X64071261Y-59392914D01*
X64146071Y-59392730D01*
X64197069Y-59391522D01*
X64229471Y-59388309D01*
X64248495Y-59382109D01*
X64259356Y-59371940D01*
X64267272Y-59356819D01*
X64267670Y-59355946D01*
X64279981Y-59326828D01*
X64284514Y-59312403D01*
X64270809Y-59310186D01*
X64232925Y-59308289D01*
X64175715Y-59306847D01*
X64104027Y-59305998D01*
X64051565Y-59305829D01*
X63950047Y-59306692D01*
X63873032Y-59310070D01*
X63816023Y-59317142D01*
X63774526Y-59329088D01*
X63744043Y-59347090D01*
X63720080Y-59372327D01*
X63703355Y-59397247D01*
X63681097Y-59457171D01*
X63676076Y-59526911D01*
X63688752Y-59592600D01*
G37*
X63688752Y-59592600D02*
X63696334Y-59609948D01*
X63729128Y-59651356D01*
X63776547Y-59686765D01*
X63827151Y-59708664D01*
X63852098Y-59712229D01*
X63886927Y-59700279D01*
X63905357Y-59674067D01*
X63916516Y-59645964D01*
X63918572Y-59633095D01*
X63903649Y-59626829D01*
X63871175Y-59614456D01*
X63856502Y-59609028D01*
X63805744Y-59578590D01*
X63780427Y-59534520D01*
X63781206Y-59478010D01*
X63782203Y-59473825D01*
X63796507Y-59443655D01*
X63824393Y-59421476D01*
X63869287Y-59406327D01*
X63934615Y-59397250D01*
X64023804Y-59393286D01*
X64071261Y-59392914D01*
X64146071Y-59392730D01*
X64197069Y-59391522D01*
X64229471Y-59388309D01*
X64248495Y-59382109D01*
X64259356Y-59371940D01*
X64267272Y-59356819D01*
X64267670Y-59355946D01*
X64279981Y-59326828D01*
X64284514Y-59312403D01*
X64270809Y-59310186D01*
X64232925Y-59308289D01*
X64175715Y-59306847D01*
X64104027Y-59305998D01*
X64051565Y-59305829D01*
X63950047Y-59306692D01*
X63873032Y-59310070D01*
X63816023Y-59317142D01*
X63774526Y-59329088D01*
X63744043Y-59347090D01*
X63720080Y-59372327D01*
X63703355Y-59397247D01*
X63681097Y-59457171D01*
X63676076Y-59526911D01*
X63688752Y-59592600D01*
G36*
X63686335Y-59084876D02*
G01*
X63705344Y-59126667D01*
X63728378Y-59159469D01*
X63754133Y-59183503D01*
X63787358Y-59200097D01*
X63832800Y-59210577D01*
X63895207Y-59216271D01*
X63979327Y-59218507D01*
X64034721Y-59218743D01*
X64250826Y-59218743D01*
X64267670Y-59181774D01*
X64279981Y-59152656D01*
X64284514Y-59138231D01*
X64271025Y-59135472D01*
X64234653Y-59133282D01*
X64181542Y-59131942D01*
X64139372Y-59131657D01*
X64078447Y-59130434D01*
X64030115Y-59127136D01*
X64000518Y-59122321D01*
X63994229Y-59118496D01*
X64000652Y-59092783D01*
X64017125Y-59052418D01*
X64039458Y-59005679D01*
X64063457Y-58960845D01*
X64084930Y-58926193D01*
X64099685Y-58910002D01*
X64099845Y-58909938D01*
X64127152Y-58911330D01*
X64153219Y-58923818D01*
X64174392Y-58945743D01*
X64181474Y-58977743D01*
X64180649Y-59005092D01*
X64180042Y-59043826D01*
X64189116Y-59064158D01*
X64213092Y-59076369D01*
X64217613Y-59077909D01*
X64251806Y-59083203D01*
X64272568Y-59069047D01*
X64282462Y-59032148D01*
X64284292Y-58992289D01*
X64270727Y-58920562D01*
X64251355Y-58883432D01*
X64205845Y-58837576D01*
X64149983Y-58813256D01*
X64090957Y-58811073D01*
X64035953Y-58831629D01*
X64001486Y-58862549D01*
X63982189Y-58893420D01*
X63957759Y-58941942D01*
X63932985Y-58998485D01*
X63929199Y-59007910D01*
X63901791Y-59070019D01*
X63877634Y-59105822D01*
X63853619Y-59117337D01*
X63826635Y-59106580D01*
X63805543Y-59088114D01*
X63779572Y-59044469D01*
X63777624Y-58996446D01*
X63797637Y-58952406D01*
X63837551Y-58920709D01*
X63847848Y-58916549D01*
X63885724Y-58892327D01*
X63913842Y-58856965D01*
X63936917Y-58812343D01*
X63871485Y-58812343D01*
X63831506Y-58814969D01*
X63799997Y-58826230D01*
X63766378Y-58851199D01*
X63740484Y-58875169D01*
X63703817Y-58912441D01*
X63684121Y-58941401D01*
X63676220Y-58972505D01*
X63674914Y-59007713D01*
X63686335Y-59084876D01*
G37*
X63686335Y-59084876D02*
X63705344Y-59126667D01*
X63728378Y-59159469D01*
X63754133Y-59183503D01*
X63787358Y-59200097D01*
X63832800Y-59210577D01*
X63895207Y-59216271D01*
X63979327Y-59218507D01*
X64034721Y-59218743D01*
X64250826Y-59218743D01*
X64267670Y-59181774D01*
X64279981Y-59152656D01*
X64284514Y-59138231D01*
X64271025Y-59135472D01*
X64234653Y-59133282D01*
X64181542Y-59131942D01*
X64139372Y-59131657D01*
X64078447Y-59130434D01*
X64030115Y-59127136D01*
X64000518Y-59122321D01*
X63994229Y-59118496D01*
X64000652Y-59092783D01*
X64017125Y-59052418D01*
X64039458Y-59005679D01*
X64063457Y-58960845D01*
X64084930Y-58926193D01*
X64099685Y-58910002D01*
X64099845Y-58909938D01*
X64127152Y-58911330D01*
X64153219Y-58923818D01*
X64174392Y-58945743D01*
X64181474Y-58977743D01*
X64180649Y-59005092D01*
X64180042Y-59043826D01*
X64189116Y-59064158D01*
X64213092Y-59076369D01*
X64217613Y-59077909D01*
X64251806Y-59083203D01*
X64272568Y-59069047D01*
X64282462Y-59032148D01*
X64284292Y-58992289D01*
X64270727Y-58920562D01*
X64251355Y-58883432D01*
X64205845Y-58837576D01*
X64149983Y-58813256D01*
X64090957Y-58811073D01*
X64035953Y-58831629D01*
X64001486Y-58862549D01*
X63982189Y-58893420D01*
X63957759Y-58941942D01*
X63932985Y-58998485D01*
X63929199Y-59007910D01*
X63901791Y-59070019D01*
X63877634Y-59105822D01*
X63853619Y-59117337D01*
X63826635Y-59106580D01*
X63805543Y-59088114D01*
X63779572Y-59044469D01*
X63777624Y-58996446D01*
X63797637Y-58952406D01*
X63837551Y-58920709D01*
X63847848Y-58916549D01*
X63885724Y-58892327D01*
X63913842Y-58856965D01*
X63936917Y-58812343D01*
X63871485Y-58812343D01*
X63831506Y-58814969D01*
X63799997Y-58826230D01*
X63766378Y-58851199D01*
X63740484Y-58875169D01*
X63703817Y-58912441D01*
X63684121Y-58941401D01*
X63676220Y-58972505D01*
X63674914Y-59007713D01*
X63686335Y-59084876D01*
G36*
X63688663Y-58719833D02*
G01*
X63726850Y-58722048D01*
X63784886Y-58723784D01*
X63858180Y-58724899D01*
X63935055Y-58725257D01*
X64195196Y-58725257D01*
X64241127Y-58679326D01*
X64269429Y-58647675D01*
X64280893Y-58619890D01*
X64280168Y-58581915D01*
X64278321Y-58566840D01*
X64272948Y-58519726D01*
X64269869Y-58480756D01*
X64269585Y-58471257D01*
X64271445Y-58439233D01*
X64276114Y-58393432D01*
X64278321Y-58375674D01*
X64281735Y-58332057D01*
X64274320Y-58302745D01*
X64251427Y-58273680D01*
X64241127Y-58263188D01*
X64195196Y-58217257D01*
X63708602Y-58217257D01*
X63691758Y-58254226D01*
X63679282Y-58286059D01*
X63674914Y-58304683D01*
X63688718Y-58309458D01*
X63727286Y-58313921D01*
X63786356Y-58317775D01*
X63861663Y-58320722D01*
X63925286Y-58322143D01*
X64175657Y-58326114D01*
X64180556Y-58360759D01*
X64177131Y-58392268D01*
X64166041Y-58407708D01*
X64145308Y-58412023D01*
X64101145Y-58415708D01*
X64039146Y-58418469D01*
X63964909Y-58420012D01*
X63926706Y-58420235D01*
X63706783Y-58420457D01*
X63690849Y-58466166D01*
X63680015Y-58498518D01*
X63674962Y-58516115D01*
X63674914Y-58516623D01*
X63688648Y-58518388D01*
X63726730Y-58520329D01*
X63784482Y-58522282D01*
X63857227Y-58524084D01*
X63925286Y-58525343D01*
X64175657Y-58529314D01*
X64175657Y-58616400D01*
X63947240Y-58620396D01*
X63718822Y-58624392D01*
X63696868Y-58666847D01*
X63681793Y-58698192D01*
X63674951Y-58716744D01*
X63674914Y-58717279D01*
X63688663Y-58719833D01*
G37*
X63688663Y-58719833D02*
X63726850Y-58722048D01*
X63784886Y-58723784D01*
X63858180Y-58724899D01*
X63935055Y-58725257D01*
X64195196Y-58725257D01*
X64241127Y-58679326D01*
X64269429Y-58647675D01*
X64280893Y-58619890D01*
X64280168Y-58581915D01*
X64278321Y-58566840D01*
X64272948Y-58519726D01*
X64269869Y-58480756D01*
X64269585Y-58471257D01*
X64271445Y-58439233D01*
X64276114Y-58393432D01*
X64278321Y-58375674D01*
X64281735Y-58332057D01*
X64274320Y-58302745D01*
X64251427Y-58273680D01*
X64241127Y-58263188D01*
X64195196Y-58217257D01*
X63708602Y-58217257D01*
X63691758Y-58254226D01*
X63679282Y-58286059D01*
X63674914Y-58304683D01*
X63688718Y-58309458D01*
X63727286Y-58313921D01*
X63786356Y-58317775D01*
X63861663Y-58320722D01*
X63925286Y-58322143D01*
X64175657Y-58326114D01*
X64180556Y-58360759D01*
X64177131Y-58392268D01*
X64166041Y-58407708D01*
X64145308Y-58412023D01*
X64101145Y-58415708D01*
X64039146Y-58418469D01*
X63964909Y-58420012D01*
X63926706Y-58420235D01*
X63706783Y-58420457D01*
X63690849Y-58466166D01*
X63680015Y-58498518D01*
X63674962Y-58516115D01*
X63674914Y-58516623D01*
X63688648Y-58518388D01*
X63726730Y-58520329D01*
X63784482Y-58522282D01*
X63857227Y-58524084D01*
X63925286Y-58525343D01*
X64175657Y-58529314D01*
X64175657Y-58616400D01*
X63947240Y-58620396D01*
X63718822Y-58624392D01*
X63696868Y-58666847D01*
X63681793Y-58698192D01*
X63674951Y-58716744D01*
X63674914Y-58717279D01*
X63688663Y-58719833D01*
G36*
X63795358Y-58130117D02*
G01*
X63903837Y-58129933D01*
X63987287Y-58129219D01*
X64049704Y-58127675D01*
X64095085Y-58125001D01*
X64127429Y-58120894D01*
X64150733Y-58115055D01*
X64168995Y-58107182D01*
X64179418Y-58101221D01*
X64235945Y-58051855D01*
X64271377Y-57989264D01*
X64284090Y-57920013D01*
X64272463Y-57850668D01*
X64251568Y-57809375D01*
X64215422Y-57766025D01*
X64171276Y-57736481D01*
X64113462Y-57718655D01*
X64036313Y-57710463D01*
X63979714Y-57709302D01*
X63975647Y-57709458D01*
X63975647Y-57810857D01*
X64040550Y-57811476D01*
X64083514Y-57814314D01*
X64111622Y-57820840D01*
X64131953Y-57832523D01*
X64147288Y-57846483D01*
X64176890Y-57893365D01*
X64179419Y-57943701D01*
X64154705Y-57991276D01*
X64151356Y-57994979D01*
X64133935Y-58010783D01*
X64113209Y-58020693D01*
X64082362Y-58026058D01*
X64034577Y-58028228D01*
X63981748Y-58028571D01*
X63915381Y-58027827D01*
X63871106Y-58024748D01*
X63842009Y-58018061D01*
X63821173Y-58006496D01*
X63810107Y-57997013D01*
X63782198Y-57952960D01*
X63778843Y-57902224D01*
X63800159Y-57853796D01*
X63808073Y-57844450D01*
X63825647Y-57828540D01*
X63846587Y-57818610D01*
X63877782Y-57813278D01*
X63926122Y-57811163D01*
X63975647Y-57810857D01*
X63975647Y-57709458D01*
X63888568Y-57712810D01*
X63820086Y-57724726D01*
X63768600Y-57747135D01*
X63728443Y-57782124D01*
X63707861Y-57809375D01*
X63685625Y-57858907D01*
X63675304Y-57916316D01*
X63678067Y-57969682D01*
X63689212Y-57999543D01*
X63692383Y-58011261D01*
X63680557Y-58019037D01*
X63648866Y-58024465D01*
X63600593Y-58028571D01*
X63546829Y-58033067D01*
X63514482Y-58039313D01*
X63495985Y-58050676D01*
X63483770Y-58070528D01*
X63478362Y-58083000D01*
X63458601Y-58130171D01*
X63795358Y-58130117D01*
G37*
X63795358Y-58130117D02*
X63903837Y-58129933D01*
X63987287Y-58129219D01*
X64049704Y-58127675D01*
X64095085Y-58125001D01*
X64127429Y-58120894D01*
X64150733Y-58115055D01*
X64168995Y-58107182D01*
X64179418Y-58101221D01*
X64235945Y-58051855D01*
X64271377Y-57989264D01*
X64284090Y-57920013D01*
X64272463Y-57850668D01*
X64251568Y-57809375D01*
X64215422Y-57766025D01*
X64171276Y-57736481D01*
X64113462Y-57718655D01*
X64036313Y-57710463D01*
X63979714Y-57709302D01*
X63975647Y-57709458D01*
X63975647Y-57810857D01*
X64040550Y-57811476D01*
X64083514Y-57814314D01*
X64111622Y-57820840D01*
X64131953Y-57832523D01*
X64147288Y-57846483D01*
X64176890Y-57893365D01*
X64179419Y-57943701D01*
X64154705Y-57991276D01*
X64151356Y-57994979D01*
X64133935Y-58010783D01*
X64113209Y-58020693D01*
X64082362Y-58026058D01*
X64034577Y-58028228D01*
X63981748Y-58028571D01*
X63915381Y-58027827D01*
X63871106Y-58024748D01*
X63842009Y-58018061D01*
X63821173Y-58006496D01*
X63810107Y-57997013D01*
X63782198Y-57952960D01*
X63778843Y-57902224D01*
X63800159Y-57853796D01*
X63808073Y-57844450D01*
X63825647Y-57828540D01*
X63846587Y-57818610D01*
X63877782Y-57813278D01*
X63926122Y-57811163D01*
X63975647Y-57810857D01*
X63975647Y-57709458D01*
X63888568Y-57712810D01*
X63820086Y-57724726D01*
X63768600Y-57747135D01*
X63728443Y-57782124D01*
X63707861Y-57809375D01*
X63685625Y-57858907D01*
X63675304Y-57916316D01*
X63678067Y-57969682D01*
X63689212Y-57999543D01*
X63692383Y-58011261D01*
X63680557Y-58019037D01*
X63648866Y-58024465D01*
X63600593Y-58028571D01*
X63546829Y-58033067D01*
X63514482Y-58039313D01*
X63495985Y-58050676D01*
X63483770Y-58070528D01*
X63478362Y-58083000D01*
X63458601Y-58130171D01*
X63795358Y-58130117D01*
G36*
X63679755Y-57469926D02*
G01*
X63704084Y-57535858D01*
X63747117Y-57589273D01*
X63777409Y-57610164D01*
X63832994Y-57632939D01*
X63873186Y-57632466D01*
X63900217Y-57608562D01*
X63904813Y-57599717D01*
X63919144Y-57561530D01*
X63915472Y-57542028D01*
X63891407Y-57535422D01*
X63878114Y-57535086D01*
X63829210Y-57522992D01*
X63794999Y-57491471D01*
X63778476Y-57447659D01*
X63782634Y-57398695D01*
X63804227Y-57358894D01*
X63816544Y-57345450D01*
X63831487Y-57335921D01*
X63854075Y-57329485D01*
X63889328Y-57325317D01*
X63942266Y-57322597D01*
X64017907Y-57320502D01*
X64041857Y-57319960D01*
X64123790Y-57317981D01*
X64181455Y-57315731D01*
X64219608Y-57312357D01*
X64243004Y-57307006D01*
X64256398Y-57298824D01*
X64264545Y-57286959D01*
X64268144Y-57279362D01*
X64280452Y-57247102D01*
X64284514Y-57228111D01*
X64270948Y-57221836D01*
X64229934Y-57218006D01*
X64160999Y-57216600D01*
X64063669Y-57217598D01*
X64048657Y-57217908D01*
X63959859Y-57220101D01*
X63895019Y-57222693D01*
X63849067Y-57226382D01*
X63816935Y-57231864D01*
X63793553Y-57239835D01*
X63773852Y-57250993D01*
X63765410Y-57256830D01*
X63728057Y-57290296D01*
X63699003Y-57327727D01*
X63696467Y-57332309D01*
X63676443Y-57399426D01*
X63679755Y-57469926D01*
G37*
X63679755Y-57469926D02*
X63704084Y-57535858D01*
X63747117Y-57589273D01*
X63777409Y-57610164D01*
X63832994Y-57632939D01*
X63873186Y-57632466D01*
X63900217Y-57608562D01*
X63904813Y-57599717D01*
X63919144Y-57561530D01*
X63915472Y-57542028D01*
X63891407Y-57535422D01*
X63878114Y-57535086D01*
X63829210Y-57522992D01*
X63794999Y-57491471D01*
X63778476Y-57447659D01*
X63782634Y-57398695D01*
X63804227Y-57358894D01*
X63816544Y-57345450D01*
X63831487Y-57335921D01*
X63854075Y-57329485D01*
X63889328Y-57325317D01*
X63942266Y-57322597D01*
X64017907Y-57320502D01*
X64041857Y-57319960D01*
X64123790Y-57317981D01*
X64181455Y-57315731D01*
X64219608Y-57312357D01*
X64243004Y-57307006D01*
X64256398Y-57298824D01*
X64264545Y-57286959D01*
X64268144Y-57279362D01*
X64280452Y-57247102D01*
X64284514Y-57228111D01*
X64270948Y-57221836D01*
X64229934Y-57218006D01*
X64160999Y-57216600D01*
X64063669Y-57217598D01*
X64048657Y-57217908D01*
X63959859Y-57220101D01*
X63895019Y-57222693D01*
X63849067Y-57226382D01*
X63816935Y-57231864D01*
X63793553Y-57239835D01*
X63773852Y-57250993D01*
X63765410Y-57256830D01*
X63728057Y-57290296D01*
X63699003Y-57327727D01*
X63696467Y-57332309D01*
X63676443Y-57399426D01*
X63679755Y-57469926D01*
G36*
X63680968Y-56979744D02*
G01*
X63702087Y-57036616D01*
X63702493Y-57037267D01*
X63728380Y-57072440D01*
X63758633Y-57098407D01*
X63798058Y-57116670D01*
X63851462Y-57128732D01*
X63923651Y-57136096D01*
X64019432Y-57140264D01*
X64033078Y-57140629D01*
X64238842Y-57145876D01*
X64261678Y-57101716D01*
X64277110Y-57069763D01*
X64284423Y-57050470D01*
X64284514Y-57049578D01*
X64271022Y-57046239D01*
X64234626Y-57043587D01*
X64181452Y-57041956D01*
X64138393Y-57041600D01*
X64068641Y-57041592D01*
X64024837Y-57038403D01*
X64003944Y-57027288D01*
X64002925Y-57003501D01*
X64018741Y-56962296D01*
X64047815Y-56900086D01*
X64071963Y-56854341D01*
X64092913Y-56830813D01*
X64115747Y-56823896D01*
X64116877Y-56823886D01*
X64156212Y-56835299D01*
X64177462Y-56869092D01*
X64180539Y-56920809D01*
X64180006Y-56958061D01*
X64190735Y-56977703D01*
X64216505Y-56989952D01*
X64249337Y-56997002D01*
X64267966Y-56986842D01*
X64270632Y-56983017D01*
X64281340Y-56947001D01*
X64282856Y-56896566D01*
X64275759Y-56844626D01*
X64262788Y-56807822D01*
X64219585Y-56756938D01*
X64159446Y-56728014D01*
X64112462Y-56722286D01*
X64070082Y-56726657D01*
X64035488Y-56742475D01*
X64004763Y-56773797D01*
X63973990Y-56824678D01*
X63939252Y-56899176D01*
X63937288Y-56903714D01*
X63906287Y-56970821D01*
X63880862Y-57012232D01*
X63858014Y-57029981D01*
X63834745Y-57026107D01*
X63808056Y-57002643D01*
X63801914Y-56995627D01*
X63778100Y-56948630D01*
X63779103Y-56899933D01*
X63802451Y-56857522D01*
X63845675Y-56829384D01*
X63854160Y-56826769D01*
X63895308Y-56801308D01*
X63915128Y-56769001D01*
X63934770Y-56722286D01*
X63883950Y-56722286D01*
X63810082Y-56736496D01*
X63742327Y-56778675D01*
X63719661Y-56800624D01*
X63690569Y-56850517D01*
X63677400Y-56913967D01*
X63680968Y-56979744D01*
G37*
X63680968Y-56979744D02*
X63702087Y-57036616D01*
X63702493Y-57037267D01*
X63728380Y-57072440D01*
X63758633Y-57098407D01*
X63798058Y-57116670D01*
X63851462Y-57128732D01*
X63923651Y-57136096D01*
X64019432Y-57140264D01*
X64033078Y-57140629D01*
X64238842Y-57145876D01*
X64261678Y-57101716D01*
X64277110Y-57069763D01*
X64284423Y-57050470D01*
X64284514Y-57049578D01*
X64271022Y-57046239D01*
X64234626Y-57043587D01*
X64181452Y-57041956D01*
X64138393Y-57041600D01*
X64068641Y-57041592D01*
X64024837Y-57038403D01*
X64003944Y-57027288D01*
X64002925Y-57003501D01*
X64018741Y-56962296D01*
X64047815Y-56900086D01*
X64071963Y-56854341D01*
X64092913Y-56830813D01*
X64115747Y-56823896D01*
X64116877Y-56823886D01*
X64156212Y-56835299D01*
X64177462Y-56869092D01*
X64180539Y-56920809D01*
X64180006Y-56958061D01*
X64190735Y-56977703D01*
X64216505Y-56989952D01*
X64249337Y-56997002D01*
X64267966Y-56986842D01*
X64270632Y-56983017D01*
X64281340Y-56947001D01*
X64282856Y-56896566D01*
X64275759Y-56844626D01*
X64262788Y-56807822D01*
X64219585Y-56756938D01*
X64159446Y-56728014D01*
X64112462Y-56722286D01*
X64070082Y-56726657D01*
X64035488Y-56742475D01*
X64004763Y-56773797D01*
X63973990Y-56824678D01*
X63939252Y-56899176D01*
X63937288Y-56903714D01*
X63906287Y-56970821D01*
X63880862Y-57012232D01*
X63858014Y-57029981D01*
X63834745Y-57026107D01*
X63808056Y-57002643D01*
X63801914Y-56995627D01*
X63778100Y-56948630D01*
X63779103Y-56899933D01*
X63802451Y-56857522D01*
X63845675Y-56829384D01*
X63854160Y-56826769D01*
X63895308Y-56801308D01*
X63915128Y-56769001D01*
X63934770Y-56722286D01*
X63883950Y-56722286D01*
X63810082Y-56736496D01*
X63742327Y-56778675D01*
X63719661Y-56800624D01*
X63690569Y-56850517D01*
X63677400Y-56913967D01*
X63680968Y-56979744D01*
G36*
X63581289Y-56315886D02*
G01*
X63640613Y-56320139D01*
X63675572Y-56325025D01*
X63690820Y-56331795D01*
X63691015Y-56341702D01*
X63689195Y-56344914D01*
X63676015Y-56387644D01*
X63676785Y-56443227D01*
X63690333Y-56499737D01*
X63707861Y-56535082D01*
X63735861Y-56571321D01*
X63767549Y-56597813D01*
X63807813Y-56615999D01*
X63861543Y-56627322D01*
X63933626Y-56633222D01*
X64028951Y-56635143D01*
X64047237Y-56635177D01*
X64252646Y-56635200D01*
X64268580Y-56589491D01*
X64279420Y-56557027D01*
X64284468Y-56539215D01*
X64284514Y-56538691D01*
X64270828Y-56536937D01*
X64233076Y-56535444D01*
X64176224Y-56534326D01*
X64105234Y-56533697D01*
X64062073Y-56533600D01*
X63976973Y-56533398D01*
X63915981Y-56532358D01*
X63874177Y-56529831D01*
X63846642Y-56525164D01*
X63828456Y-56517707D01*
X63814698Y-56506811D01*
X63808073Y-56500007D01*
X63781375Y-56453272D01*
X63779375Y-56402272D01*
X63801955Y-56356001D01*
X63810107Y-56347444D01*
X63825436Y-56334893D01*
X63843618Y-56326188D01*
X63869909Y-56320631D01*
X63909562Y-56317526D01*
X63967832Y-56316176D01*
X64048173Y-56315886D01*
X64252646Y-56315886D01*
X64268580Y-56270177D01*
X64279420Y-56237713D01*
X64284468Y-56219901D01*
X64284514Y-56219377D01*
X64270623Y-56218037D01*
X64231439Y-56216828D01*
X64170700Y-56215801D01*
X64092141Y-56215002D01*
X63999498Y-56214481D01*
X63896509Y-56214286D01*
X63499342Y-56214286D01*
X63479444Y-56261457D01*
X63459547Y-56308629D01*
X63581289Y-56315886D01*
G37*
X63581289Y-56315886D02*
X63640613Y-56320139D01*
X63675572Y-56325025D01*
X63690820Y-56331795D01*
X63691015Y-56341702D01*
X63689195Y-56344914D01*
X63676015Y-56387644D01*
X63676785Y-56443227D01*
X63690333Y-56499737D01*
X63707861Y-56535082D01*
X63735861Y-56571321D01*
X63767549Y-56597813D01*
X63807813Y-56615999D01*
X63861543Y-56627322D01*
X63933626Y-56633222D01*
X64028951Y-56635143D01*
X64047237Y-56635177D01*
X64252646Y-56635200D01*
X64268580Y-56589491D01*
X64279420Y-56557027D01*
X64284468Y-56539215D01*
X64284514Y-56538691D01*
X64270828Y-56536937D01*
X64233076Y-56535444D01*
X64176224Y-56534326D01*
X64105234Y-56533697D01*
X64062073Y-56533600D01*
X63976973Y-56533398D01*
X63915981Y-56532358D01*
X63874177Y-56529831D01*
X63846642Y-56525164D01*
X63828456Y-56517707D01*
X63814698Y-56506811D01*
X63808073Y-56500007D01*
X63781375Y-56453272D01*
X63779375Y-56402272D01*
X63801955Y-56356001D01*
X63810107Y-56347444D01*
X63825436Y-56334893D01*
X63843618Y-56326188D01*
X63869909Y-56320631D01*
X63909562Y-56317526D01*
X63967832Y-56316176D01*
X64048173Y-56315886D01*
X64252646Y-56315886D01*
X64268580Y-56270177D01*
X64279420Y-56237713D01*
X64284468Y-56219901D01*
X64284514Y-56219377D01*
X64270623Y-56218037D01*
X64231439Y-56216828D01*
X64170700Y-56215801D01*
X64092141Y-56215002D01*
X63999498Y-56214481D01*
X63896509Y-56214286D01*
X63499342Y-56214286D01*
X63479444Y-56261457D01*
X63459547Y-56308629D01*
X63581289Y-56315886D01*
G36*
X63661239Y-55108303D02*
G01*
X63699735Y-55165527D01*
X63755335Y-55209749D01*
X63826086Y-55236167D01*
X63878162Y-55241510D01*
X63899893Y-55240903D01*
X63916531Y-55235822D01*
X63931437Y-55221855D01*
X63947973Y-55194589D01*
X63969498Y-55149612D01*
X63999374Y-55082511D01*
X63999524Y-55082171D01*
X64027813Y-55020407D01*
X64052933Y-54969759D01*
X64072179Y-54935404D01*
X64082848Y-54922518D01*
X64082934Y-54922514D01*
X64106166Y-54933872D01*
X64131774Y-54960431D01*
X64150221Y-54990923D01*
X64153886Y-55006370D01*
X64141212Y-55048515D01*
X64109471Y-55084808D01*
X64074572Y-55102517D01*
X64048845Y-55119552D01*
X64019546Y-55152922D01*
X63994235Y-55192149D01*
X63980471Y-55226756D01*
X63979714Y-55233993D01*
X63992160Y-55242139D01*
X64023972Y-55242630D01*
X64066866Y-55236643D01*
X64112558Y-55225357D01*
X64152761Y-55209950D01*
X64154322Y-55209171D01*
X64219062Y-55162804D01*
X64263097Y-55102711D01*
X64284711Y-55034465D01*
X64282185Y-54963638D01*
X64253804Y-54895804D01*
X64251808Y-54892788D01*
X64203448Y-54839427D01*
X64140352Y-54804340D01*
X64057387Y-54784922D01*
X64034078Y-54782316D01*
X63924055Y-54777701D01*
X63872748Y-54783233D01*
X63872748Y-54922514D01*
X63904753Y-54924324D01*
X63914093Y-54934222D01*
X63907105Y-54958898D01*
X63890587Y-54997795D01*
X63869881Y-55041275D01*
X63869333Y-55042356D01*
X63849949Y-55079209D01*
X63837013Y-55094000D01*
X63823451Y-55090353D01*
X63805632Y-55074995D01*
X63779845Y-55035923D01*
X63777950Y-54993846D01*
X63796717Y-54956103D01*
X63832915Y-54930034D01*
X63872748Y-54922514D01*
X63872748Y-54783233D01*
X63836027Y-54787194D01*
X63766212Y-54811550D01*
X63717302Y-54845456D01*
X63667878Y-54906653D01*
X63643359Y-54974063D01*
X63641797Y-55042880D01*
X63661239Y-55108303D01*
G37*
X63661239Y-55108303D02*
X63699735Y-55165527D01*
X63755335Y-55209749D01*
X63826086Y-55236167D01*
X63878162Y-55241510D01*
X63899893Y-55240903D01*
X63916531Y-55235822D01*
X63931437Y-55221855D01*
X63947973Y-55194589D01*
X63969498Y-55149612D01*
X63999374Y-55082511D01*
X63999524Y-55082171D01*
X64027813Y-55020407D01*
X64052933Y-54969759D01*
X64072179Y-54935404D01*
X64082848Y-54922518D01*
X64082934Y-54922514D01*
X64106166Y-54933872D01*
X64131774Y-54960431D01*
X64150221Y-54990923D01*
X64153886Y-55006370D01*
X64141212Y-55048515D01*
X64109471Y-55084808D01*
X64074572Y-55102517D01*
X64048845Y-55119552D01*
X64019546Y-55152922D01*
X63994235Y-55192149D01*
X63980471Y-55226756D01*
X63979714Y-55233993D01*
X63992160Y-55242139D01*
X64023972Y-55242630D01*
X64066866Y-55236643D01*
X64112558Y-55225357D01*
X64152761Y-55209950D01*
X64154322Y-55209171D01*
X64219062Y-55162804D01*
X64263097Y-55102711D01*
X64284711Y-55034465D01*
X64282185Y-54963638D01*
X64253804Y-54895804D01*
X64251808Y-54892788D01*
X64203448Y-54839427D01*
X64140352Y-54804340D01*
X64057387Y-54784922D01*
X64034078Y-54782316D01*
X63924055Y-54777701D01*
X63872748Y-54783233D01*
X63872748Y-54922514D01*
X63904753Y-54924324D01*
X63914093Y-54934222D01*
X63907105Y-54958898D01*
X63890587Y-54997795D01*
X63869881Y-55041275D01*
X63869333Y-55042356D01*
X63849949Y-55079209D01*
X63837013Y-55094000D01*
X63823451Y-55090353D01*
X63805632Y-55074995D01*
X63779845Y-55035923D01*
X63777950Y-54993846D01*
X63796717Y-54956103D01*
X63832915Y-54930034D01*
X63872748Y-54922514D01*
X63872748Y-54783233D01*
X63836027Y-54787194D01*
X63766212Y-54811550D01*
X63717302Y-54845456D01*
X63667878Y-54906653D01*
X63643359Y-54974063D01*
X63641797Y-55042880D01*
X63661239Y-55108303D01*
G36*
X63651962Y-53981115D02*
G01*
X63687733Y-54049145D01*
X63745301Y-54099351D01*
X63782312Y-54117185D01*
X63837882Y-54131063D01*
X63908096Y-54138167D01*
X63984727Y-54138840D01*
X64059552Y-54133427D01*
X64124342Y-54122270D01*
X64170873Y-54105714D01*
X64178887Y-54100626D01*
X64238707Y-54040355D01*
X64274535Y-53968769D01*
X64285020Y-53891092D01*
X64268810Y-53812548D01*
X64259092Y-53790689D01*
X64229143Y-53748122D01*
X64189433Y-53710763D01*
X64184397Y-53707232D01*
X64160124Y-53692881D01*
X64134178Y-53683394D01*
X64100022Y-53677790D01*
X64051119Y-53675086D01*
X63980935Y-53674299D01*
X63965200Y-53674286D01*
X63960192Y-53674322D01*
X63960192Y-53819429D01*
X64026430Y-53820273D01*
X64070386Y-53823596D01*
X64098779Y-53830583D01*
X64118325Y-53842416D01*
X64124857Y-53848457D01*
X64149680Y-53883186D01*
X64148548Y-53916903D01*
X64127016Y-53950995D01*
X64104029Y-53971329D01*
X64070478Y-53983371D01*
X64017569Y-53990134D01*
X64011399Y-53990598D01*
X63915513Y-53991752D01*
X63844299Y-53979688D01*
X63798194Y-53954570D01*
X63777635Y-53916560D01*
X63776514Y-53902992D01*
X63782152Y-53867364D01*
X63801686Y-53842994D01*
X63839042Y-53828093D01*
X63898150Y-53820875D01*
X63960192Y-53819429D01*
X63960192Y-53674322D01*
X63890413Y-53674826D01*
X63838159Y-53677096D01*
X63801949Y-53682068D01*
X63775299Y-53690713D01*
X63751722Y-53704005D01*
X63747338Y-53706943D01*
X63688249Y-53756313D01*
X63653947Y-53810109D01*
X63640331Y-53875602D01*
X63639665Y-53897842D01*
X63651962Y-53981115D01*
G37*
X63651962Y-53981115D02*
X63687733Y-54049145D01*
X63745301Y-54099351D01*
X63782312Y-54117185D01*
X63837882Y-54131063D01*
X63908096Y-54138167D01*
X63984727Y-54138840D01*
X64059552Y-54133427D01*
X64124342Y-54122270D01*
X64170873Y-54105714D01*
X64178887Y-54100626D01*
X64238707Y-54040355D01*
X64274535Y-53968769D01*
X64285020Y-53891092D01*
X64268810Y-53812548D01*
X64259092Y-53790689D01*
X64229143Y-53748122D01*
X64189433Y-53710763D01*
X64184397Y-53707232D01*
X64160124Y-53692881D01*
X64134178Y-53683394D01*
X64100022Y-53677790D01*
X64051119Y-53675086D01*
X63980935Y-53674299D01*
X63965200Y-53674286D01*
X63960192Y-53674322D01*
X63960192Y-53819429D01*
X64026430Y-53820273D01*
X64070386Y-53823596D01*
X64098779Y-53830583D01*
X64118325Y-53842416D01*
X64124857Y-53848457D01*
X64149680Y-53883186D01*
X64148548Y-53916903D01*
X64127016Y-53950995D01*
X64104029Y-53971329D01*
X64070478Y-53983371D01*
X64017569Y-53990134D01*
X64011399Y-53990598D01*
X63915513Y-53991752D01*
X63844299Y-53979688D01*
X63798194Y-53954570D01*
X63777635Y-53916560D01*
X63776514Y-53902992D01*
X63782152Y-53867364D01*
X63801686Y-53842994D01*
X63839042Y-53828093D01*
X63898150Y-53820875D01*
X63960192Y-53819429D01*
X63960192Y-53674322D01*
X63890413Y-53674826D01*
X63838159Y-53677096D01*
X63801949Y-53682068D01*
X63775299Y-53690713D01*
X63751722Y-53704005D01*
X63747338Y-53706943D01*
X63688249Y-53756313D01*
X63653947Y-53810109D01*
X63640331Y-53875602D01*
X63639665Y-53897842D01*
X63651962Y-53981115D01*
G36*
X63657780Y-55656093D02*
G01*
X63684723Y-55702672D01*
X63711466Y-55735057D01*
X63739484Y-55758742D01*
X63773748Y-55775059D01*
X63819227Y-55785339D01*
X63880892Y-55790914D01*
X63963711Y-55793116D01*
X64023246Y-55793371D01*
X64242391Y-55793371D01*
X64270044Y-55731686D01*
X64297697Y-55670000D01*
X64057670Y-55662743D01*
X63968028Y-55659744D01*
X63902962Y-55656598D01*
X63858026Y-55652701D01*
X63828770Y-55647447D01*
X63810748Y-55640231D01*
X63799511Y-55630450D01*
X63797079Y-55627312D01*
X63778083Y-55579761D01*
X63785600Y-55531697D01*
X63805543Y-55503086D01*
X63819675Y-55491447D01*
X63838220Y-55483391D01*
X63866334Y-55478271D01*
X63909173Y-55475441D01*
X63971895Y-55474256D01*
X64037261Y-55474057D01*
X64119268Y-55474018D01*
X64177316Y-55472614D01*
X64216465Y-55467914D01*
X64241780Y-55457987D01*
X64258323Y-55440903D01*
X64271156Y-55414732D01*
X64284491Y-55379775D01*
X64299007Y-55341596D01*
X64041389Y-55346141D01*
X63948519Y-55347971D01*
X63879889Y-55350112D01*
X63830711Y-55353181D01*
X63796198Y-55357794D01*
X63771562Y-55364568D01*
X63752016Y-55374119D01*
X63734770Y-55385634D01*
X63679680Y-55441190D01*
X63647822Y-55508980D01*
X63640191Y-55582713D01*
X63657780Y-55656093D01*
G37*
X63657780Y-55656093D02*
X63684723Y-55702672D01*
X63711466Y-55735057D01*
X63739484Y-55758742D01*
X63773748Y-55775059D01*
X63819227Y-55785339D01*
X63880892Y-55790914D01*
X63963711Y-55793116D01*
X64023246Y-55793371D01*
X64242391Y-55793371D01*
X64270044Y-55731686D01*
X64297697Y-55670000D01*
X64057670Y-55662743D01*
X63968028Y-55659744D01*
X63902962Y-55656598D01*
X63858026Y-55652701D01*
X63828770Y-55647447D01*
X63810748Y-55640231D01*
X63799511Y-55630450D01*
X63797079Y-55627312D01*
X63778083Y-55579761D01*
X63785600Y-55531697D01*
X63805543Y-55503086D01*
X63819675Y-55491447D01*
X63838220Y-55483391D01*
X63866334Y-55478271D01*
X63909173Y-55475441D01*
X63971895Y-55474256D01*
X64037261Y-55474057D01*
X64119268Y-55474018D01*
X64177316Y-55472614D01*
X64216465Y-55467914D01*
X64241780Y-55457987D01*
X64258323Y-55440903D01*
X64271156Y-55414732D01*
X64284491Y-55379775D01*
X64299007Y-55341596D01*
X64041389Y-55346141D01*
X63948519Y-55347971D01*
X63879889Y-55350112D01*
X63830711Y-55353181D01*
X63796198Y-55357794D01*
X63771562Y-55364568D01*
X63752016Y-55374119D01*
X63734770Y-55385634D01*
X63679680Y-55441190D01*
X63647822Y-55508980D01*
X63640191Y-55582713D01*
X63657780Y-55656093D01*
G36*
X63649918Y-54539744D02*
G01*
X63677568Y-54595201D01*
X63728480Y-54644148D01*
X63747338Y-54657629D01*
X63772015Y-54672314D01*
X63798816Y-54681842D01*
X63834587Y-54687293D01*
X63886169Y-54689747D01*
X63954267Y-54690286D01*
X64047588Y-54687852D01*
X64117657Y-54679394D01*
X64169931Y-54663174D01*
X64209869Y-54637454D01*
X64242929Y-54600497D01*
X64244886Y-54597782D01*
X64264908Y-54561360D01*
X64274815Y-54517502D01*
X64277257Y-54461724D01*
X64277257Y-54371048D01*
X64365283Y-54371010D01*
X64414308Y-54370166D01*
X64443065Y-54365024D01*
X64460311Y-54351587D01*
X64474808Y-54325858D01*
X64477769Y-54319679D01*
X64491648Y-54290764D01*
X64500414Y-54268376D01*
X64501171Y-54251729D01*
X64491023Y-54240036D01*
X64467073Y-54232510D01*
X64426426Y-54228366D01*
X64366186Y-54226815D01*
X64283455Y-54227071D01*
X64175339Y-54228349D01*
X64143000Y-54228748D01*
X64031524Y-54230185D01*
X63958603Y-54231472D01*
X63958603Y-54370971D01*
X64020499Y-54371755D01*
X64060997Y-54375240D01*
X64087708Y-54383124D01*
X64108244Y-54397105D01*
X64118260Y-54406597D01*
X64147567Y-54445404D01*
X64149952Y-54479763D01*
X64125750Y-54515216D01*
X64124857Y-54516114D01*
X64106153Y-54530539D01*
X64080732Y-54539313D01*
X64041584Y-54543739D01*
X63981697Y-54545118D01*
X63968430Y-54545143D01*
X63885901Y-54541812D01*
X63828691Y-54530969D01*
X63793766Y-54511340D01*
X63778094Y-54481650D01*
X63776514Y-54464491D01*
X63783926Y-54423766D01*
X63808330Y-54395832D01*
X63852980Y-54379017D01*
X63921130Y-54371650D01*
X63958603Y-54370971D01*
X63958603Y-54231472D01*
X63945245Y-54231708D01*
X63880333Y-54233677D01*
X63832958Y-54236450D01*
X63799290Y-54240388D01*
X63775498Y-54245849D01*
X63757753Y-54253192D01*
X63742224Y-54262777D01*
X63736381Y-54266887D01*
X63681185Y-54321405D01*
X63649890Y-54390336D01*
X63641165Y-54470072D01*
X63649918Y-54539744D01*
G37*
X63649918Y-54539744D02*
X63677568Y-54595201D01*
X63728480Y-54644148D01*
X63747338Y-54657629D01*
X63772015Y-54672314D01*
X63798816Y-54681842D01*
X63834587Y-54687293D01*
X63886169Y-54689747D01*
X63954267Y-54690286D01*
X64047588Y-54687852D01*
X64117657Y-54679394D01*
X64169931Y-54663174D01*
X64209869Y-54637454D01*
X64242929Y-54600497D01*
X64244886Y-54597782D01*
X64264908Y-54561360D01*
X64274815Y-54517502D01*
X64277257Y-54461724D01*
X64277257Y-54371048D01*
X64365283Y-54371010D01*
X64414308Y-54370166D01*
X64443065Y-54365024D01*
X64460311Y-54351587D01*
X64474808Y-54325858D01*
X64477769Y-54319679D01*
X64491648Y-54290764D01*
X64500414Y-54268376D01*
X64501171Y-54251729D01*
X64491023Y-54240036D01*
X64467073Y-54232510D01*
X64426426Y-54228366D01*
X64366186Y-54226815D01*
X64283455Y-54227071D01*
X64175339Y-54228349D01*
X64143000Y-54228748D01*
X64031524Y-54230185D01*
X63958603Y-54231472D01*
X63958603Y-54370971D01*
X64020499Y-54371755D01*
X64060997Y-54375240D01*
X64087708Y-54383124D01*
X64108244Y-54397105D01*
X64118260Y-54406597D01*
X64147567Y-54445404D01*
X64149952Y-54479763D01*
X64125750Y-54515216D01*
X64124857Y-54516114D01*
X64106153Y-54530539D01*
X64080732Y-54539313D01*
X64041584Y-54543739D01*
X63981697Y-54545118D01*
X63968430Y-54545143D01*
X63885901Y-54541812D01*
X63828691Y-54530969D01*
X63793766Y-54511340D01*
X63778094Y-54481650D01*
X63776514Y-54464491D01*
X63783926Y-54423766D01*
X63808330Y-54395832D01*
X63852980Y-54379017D01*
X63921130Y-54371650D01*
X63958603Y-54370971D01*
X63958603Y-54231472D01*
X63945245Y-54231708D01*
X63880333Y-54233677D01*
X63832958Y-54236450D01*
X63799290Y-54240388D01*
X63775498Y-54245849D01*
X63757753Y-54253192D01*
X63742224Y-54262777D01*
X63736381Y-54266887D01*
X63681185Y-54321405D01*
X63649890Y-54390336D01*
X63641165Y-54470072D01*
X63649918Y-54539744D01*
%TO.C,G\u002A\u002A\u002A*%
G36*
X52191000Y-62911333D02*
G01*
X52233334Y-62869000D01*
X52191000Y-62826666D01*
X52148667Y-62869000D01*
X52191000Y-62911333D01*
G37*
X52191000Y-62911333D02*
X52233334Y-62869000D01*
X52191000Y-62826666D01*
X52148667Y-62869000D01*
X52191000Y-62911333D01*
G36*
X52191000Y-62403333D02*
G01*
X52233334Y-62361000D01*
X52191000Y-62318666D01*
X52148667Y-62361000D01*
X52191000Y-62403333D01*
G37*
X52191000Y-62403333D02*
X52233334Y-62361000D01*
X52191000Y-62318666D01*
X52148667Y-62361000D01*
X52191000Y-62403333D01*
G36*
X52191000Y-61895333D02*
G01*
X52233334Y-61853000D01*
X52191000Y-61810666D01*
X52148667Y-61853000D01*
X52191000Y-61895333D01*
G37*
X52191000Y-61895333D02*
X52233334Y-61853000D01*
X52191000Y-61810666D01*
X52148667Y-61853000D01*
X52191000Y-61895333D01*
G36*
X52191000Y-61726000D02*
G01*
X52233334Y-61683666D01*
X52191000Y-61641333D01*
X52148667Y-61683666D01*
X52191000Y-61726000D01*
G37*
X52191000Y-61726000D02*
X52233334Y-61683666D01*
X52191000Y-61641333D01*
X52148667Y-61683666D01*
X52191000Y-61726000D01*
G36*
X52191000Y-61387333D02*
G01*
X52233334Y-61345000D01*
X52191000Y-61302666D01*
X52148667Y-61345000D01*
X52191000Y-61387333D01*
G37*
X52191000Y-61387333D02*
X52233334Y-61345000D01*
X52191000Y-61302666D01*
X52148667Y-61345000D01*
X52191000Y-61387333D01*
G36*
X52191000Y-61218000D02*
G01*
X52233334Y-61175666D01*
X52191000Y-61133333D01*
X52148667Y-61175666D01*
X52191000Y-61218000D01*
G37*
X52191000Y-61218000D02*
X52233334Y-61175666D01*
X52191000Y-61133333D01*
X52148667Y-61175666D01*
X52191000Y-61218000D01*
G36*
X52191000Y-62723114D02*
G01*
X52323089Y-62844488D01*
X52339167Y-62862929D01*
X52391976Y-62863665D01*
X52402667Y-62798444D01*
X52333722Y-62679513D01*
X52254500Y-62658629D01*
X52167890Y-62685784D01*
X52191000Y-62723114D01*
G37*
X52191000Y-62723114D02*
X52323089Y-62844488D01*
X52339167Y-62862929D01*
X52391976Y-62863665D01*
X52402667Y-62798444D01*
X52333722Y-62679513D01*
X52254500Y-62658629D01*
X52167890Y-62685784D01*
X52191000Y-62723114D01*
G36*
X52191000Y-62215114D02*
G01*
X52323089Y-62336488D01*
X52339167Y-62354929D01*
X52391976Y-62355665D01*
X52402667Y-62290444D01*
X52333722Y-62171513D01*
X52254500Y-62150629D01*
X52167890Y-62177784D01*
X52191000Y-62215114D01*
G37*
X52191000Y-62215114D02*
X52323089Y-62336488D01*
X52339167Y-62354929D01*
X52391976Y-62355665D01*
X52402667Y-62290444D01*
X52333722Y-62171513D01*
X52254500Y-62150629D01*
X52167890Y-62177784D01*
X52191000Y-62215114D01*
G36*
X52351514Y-61872402D02*
G01*
X52389996Y-61847151D01*
X52395983Y-61761277D01*
X52375305Y-61670935D01*
X52344830Y-61710125D01*
X52334736Y-61842448D01*
X52351514Y-61872402D01*
G37*
X52351514Y-61872402D02*
X52389996Y-61847151D01*
X52395983Y-61761277D01*
X52375305Y-61670935D01*
X52344830Y-61710125D01*
X52334736Y-61842448D01*
X52351514Y-61872402D01*
G36*
X52351514Y-61364402D02*
G01*
X52389996Y-61339151D01*
X52395983Y-61253277D01*
X52375305Y-61162935D01*
X52344830Y-61202124D01*
X52334736Y-61334448D01*
X52351514Y-61364402D01*
G37*
X52351514Y-61364402D02*
X52389996Y-61339151D01*
X52395983Y-61253277D01*
X52375305Y-61162935D01*
X52344830Y-61202124D01*
X52334736Y-61334448D01*
X52351514Y-61364402D01*
G36*
X53080000Y-62996000D02*
G01*
X53365976Y-62988745D01*
X53519520Y-62959782D01*
X53577179Y-62898306D01*
X53581316Y-62847833D01*
X53559632Y-62767600D01*
X53531927Y-62805500D01*
X53455973Y-62912080D01*
X53390734Y-62869882D01*
X53352826Y-62699358D01*
X53349179Y-62580554D01*
X53338979Y-62344811D01*
X53307970Y-62180393D01*
X53298948Y-62161115D01*
X53276590Y-62026243D01*
X53303236Y-61843808D01*
X53361088Y-61690811D01*
X53419089Y-61641333D01*
X53456191Y-61718024D01*
X53482793Y-61916261D01*
X53491515Y-62118048D01*
X53502085Y-62386422D01*
X53523382Y-62578806D01*
X53542605Y-62640159D01*
X53561850Y-62581740D01*
X53577049Y-62387805D01*
X53586216Y-62092160D01*
X53588000Y-61867111D01*
X53588000Y-61048666D01*
X52572000Y-61048666D01*
X52572000Y-62996000D01*
X53080000Y-62996000D01*
G37*
X53080000Y-62996000D02*
X53365976Y-62988745D01*
X53519520Y-62959782D01*
X53577179Y-62898306D01*
X53581316Y-62847833D01*
X53559632Y-62767600D01*
X53531927Y-62805500D01*
X53455973Y-62912080D01*
X53390734Y-62869882D01*
X53352826Y-62699358D01*
X53349179Y-62580554D01*
X53338979Y-62344811D01*
X53307970Y-62180393D01*
X53298948Y-62161115D01*
X53276590Y-62026243D01*
X53303236Y-61843808D01*
X53361088Y-61690811D01*
X53419089Y-61641333D01*
X53456191Y-61718024D01*
X53482793Y-61916261D01*
X53491515Y-62118048D01*
X53502085Y-62386422D01*
X53523382Y-62578806D01*
X53542605Y-62640159D01*
X53561850Y-62581740D01*
X53577049Y-62387805D01*
X53586216Y-62092160D01*
X53588000Y-61867111D01*
X53588000Y-61048666D01*
X52572000Y-61048666D01*
X52572000Y-62996000D01*
X53080000Y-62996000D01*
G36*
X53790847Y-62380402D02*
G01*
X53829329Y-62355151D01*
X53835316Y-62269277D01*
X53814639Y-62178935D01*
X53784163Y-62218125D01*
X53774070Y-62350448D01*
X53790847Y-62380402D01*
G37*
X53790847Y-62380402D02*
X53829329Y-62355151D01*
X53835316Y-62269277D01*
X53814639Y-62178935D01*
X53784163Y-62218125D01*
X53774070Y-62350448D01*
X53790847Y-62380402D01*
G36*
X53790847Y-61872402D02*
G01*
X53829329Y-61847151D01*
X53835316Y-61761277D01*
X53814639Y-61670935D01*
X53784163Y-61710125D01*
X53774070Y-61842448D01*
X53790847Y-61872402D01*
G37*
X53790847Y-61872402D02*
X53829329Y-61847151D01*
X53835316Y-61761277D01*
X53814639Y-61670935D01*
X53784163Y-61710125D01*
X53774070Y-61842448D01*
X53790847Y-61872402D01*
G36*
X53790847Y-61364402D02*
G01*
X53829329Y-61339151D01*
X53835316Y-61253277D01*
X53814639Y-61162935D01*
X53784163Y-61202124D01*
X53774070Y-61334448D01*
X53790847Y-61364402D01*
G37*
X53790847Y-61364402D02*
X53829329Y-61339151D01*
X53835316Y-61253277D01*
X53814639Y-61162935D01*
X53784163Y-61202124D01*
X53774070Y-61334448D01*
X53790847Y-61364402D01*
G36*
X53969000Y-62911333D02*
G01*
X54011334Y-62869000D01*
X53969000Y-62826666D01*
X53926667Y-62869000D01*
X53969000Y-62911333D01*
G37*
X53969000Y-62911333D02*
X54011334Y-62869000D01*
X53969000Y-62826666D01*
X53926667Y-62869000D01*
X53969000Y-62911333D01*
G36*
X53785785Y-62892110D02*
G01*
X53823115Y-62869000D01*
X53944488Y-62736910D01*
X53962930Y-62720833D01*
X53963665Y-62668024D01*
X53898445Y-62657333D01*
X53779514Y-62726278D01*
X53758630Y-62805500D01*
X53785785Y-62892110D01*
G37*
X53785785Y-62892110D02*
X53823115Y-62869000D01*
X53944488Y-62736910D01*
X53962930Y-62720833D01*
X53963665Y-62668024D01*
X53898445Y-62657333D01*
X53779514Y-62726278D01*
X53758630Y-62805500D01*
X53785785Y-62892110D01*
G36*
X53969000Y-62403333D02*
G01*
X54011334Y-62361000D01*
X53969000Y-62318666D01*
X53926667Y-62361000D01*
X53969000Y-62403333D01*
G37*
X53969000Y-62403333D02*
X54011334Y-62361000D01*
X53969000Y-62318666D01*
X53926667Y-62361000D01*
X53969000Y-62403333D01*
G36*
X53969000Y-62234000D02*
G01*
X54011334Y-62191666D01*
X53969000Y-62149333D01*
X53926667Y-62191666D01*
X53969000Y-62234000D01*
G37*
X53969000Y-62234000D02*
X54011334Y-62191666D01*
X53969000Y-62149333D01*
X53926667Y-62191666D01*
X53969000Y-62234000D01*
G36*
X53969000Y-61895333D02*
G01*
X54011334Y-61853000D01*
X53969000Y-61810666D01*
X53926667Y-61853000D01*
X53969000Y-61895333D01*
G37*
X53969000Y-61895333D02*
X54011334Y-61853000D01*
X53969000Y-61810666D01*
X53926667Y-61853000D01*
X53969000Y-61895333D01*
G36*
X53969000Y-61726000D02*
G01*
X54011334Y-61683666D01*
X53969000Y-61641333D01*
X53926667Y-61683666D01*
X53969000Y-61726000D01*
G37*
X53969000Y-61726000D02*
X54011334Y-61683666D01*
X53969000Y-61641333D01*
X53926667Y-61683666D01*
X53969000Y-61726000D01*
G36*
X53969000Y-61387333D02*
G01*
X54011334Y-61345000D01*
X53969000Y-61302666D01*
X53926667Y-61345000D01*
X53969000Y-61387333D01*
G37*
X53969000Y-61387333D02*
X54011334Y-61345000D01*
X53969000Y-61302666D01*
X53926667Y-61345000D01*
X53969000Y-61387333D01*
G36*
X53969000Y-61218000D02*
G01*
X54011334Y-61175666D01*
X53969000Y-61133333D01*
X53926667Y-61175666D01*
X53969000Y-61218000D01*
G37*
X53969000Y-61218000D02*
X54011334Y-61175666D01*
X53969000Y-61133333D01*
X53926667Y-61175666D01*
X53969000Y-61218000D01*
D10*
%TO.C,J3*%
X53000000Y-66260000D02*
X53000000Y-63600000D01*
X60680000Y-66260000D02*
X53000000Y-66260000D01*
X60680000Y-63600000D02*
X53000000Y-63600000D01*
X60680000Y-66260000D02*
X60680000Y-63600000D01*
X61950000Y-66260000D02*
X63280000Y-66260000D01*
X63280000Y-66260000D02*
X63280000Y-64930000D01*
%TO.C,C1*%
X58061252Y-61485000D02*
X57538748Y-61485000D01*
X58061252Y-62955000D02*
X57538748Y-62955000D01*
%TO.C,C2*%
X58061252Y-60835000D02*
X57538748Y-60835000D01*
X58061252Y-59365000D02*
X57538748Y-59365000D01*
%TO.C,D1*%
X58800000Y-55020000D02*
X55940000Y-55020000D01*
X55940000Y-55020000D02*
X55940000Y-53100000D01*
X55940000Y-53100000D02*
X58800000Y-53100000D01*
%TO.C,R1*%
X57582936Y-58785000D02*
X58037064Y-58785000D01*
X57582936Y-57315000D02*
X58037064Y-57315000D01*
%TO.C,R2*%
X57582936Y-55295000D02*
X58037064Y-55295000D01*
X57582936Y-56765000D02*
X58037064Y-56765000D01*
%TO.C,J3*%
D14*
X63982857Y-65220000D02*
X63340000Y-65220000D01*
X63211428Y-65262857D01*
X63125714Y-65348571D01*
X63082857Y-65477142D01*
X63082857Y-65562857D01*
X63982857Y-64877142D02*
X63982857Y-64320000D01*
X63640000Y-64620000D01*
X63640000Y-64491428D01*
X63597142Y-64405714D01*
X63554285Y-64362857D01*
X63468571Y-64320000D01*
X63254285Y-64320000D01*
X63168571Y-64362857D01*
X63125714Y-64405714D01*
X63082857Y-64491428D01*
X63082857Y-64748571D01*
X63125714Y-64834285D01*
X63168571Y-64877142D01*
%TO.C,C1*%
D15*
X58012857Y-62113333D02*
X58031904Y-62094285D01*
X58050952Y-62037142D01*
X58050952Y-61999047D01*
X58031904Y-61941904D01*
X57993809Y-61903809D01*
X57955714Y-61884761D01*
X57879523Y-61865714D01*
X57822380Y-61865714D01*
X57746190Y-61884761D01*
X57708095Y-61903809D01*
X57670000Y-61941904D01*
X57650952Y-61999047D01*
X57650952Y-62037142D01*
X57670000Y-62094285D01*
X57689047Y-62113333D01*
X58050952Y-62494285D02*
X58050952Y-62265714D01*
X58050952Y-62380000D02*
X57650952Y-62380000D01*
X57708095Y-62341904D01*
X57746190Y-62303809D01*
X57765238Y-62265714D01*
X55360952Y-61534285D02*
X55360952Y-61572380D01*
X55380000Y-61610476D01*
X55399047Y-61629523D01*
X55437142Y-61648571D01*
X55513333Y-61667619D01*
X55608571Y-61667619D01*
X55684761Y-61648571D01*
X55722857Y-61629523D01*
X55741904Y-61610476D01*
X55760952Y-61572380D01*
X55760952Y-61534285D01*
X55741904Y-61496190D01*
X55722857Y-61477142D01*
X55684761Y-61458095D01*
X55608571Y-61439047D01*
X55513333Y-61439047D01*
X55437142Y-61458095D01*
X55399047Y-61477142D01*
X55380000Y-61496190D01*
X55360952Y-61534285D01*
X55741904Y-61858095D02*
X55760952Y-61858095D01*
X55799047Y-61839047D01*
X55818095Y-61820000D01*
X55760952Y-62239047D02*
X55760952Y-62010476D01*
X55760952Y-62124761D02*
X55360952Y-62124761D01*
X55418095Y-62086666D01*
X55456190Y-62048571D01*
X55475238Y-62010476D01*
X55494285Y-62410476D02*
X55894285Y-62410476D01*
X55703809Y-62600952D02*
X55741904Y-62620000D01*
X55760952Y-62658095D01*
X55703809Y-62410476D02*
X55741904Y-62429523D01*
X55760952Y-62467619D01*
X55760952Y-62543809D01*
X55741904Y-62581904D01*
X55703809Y-62600952D01*
X55494285Y-62600952D01*
X55551428Y-62962857D02*
X55551428Y-62829523D01*
X55760952Y-62829523D02*
X55360952Y-62829523D01*
X55360952Y-63020000D01*
%TO.C,C2*%
D16*
X58008571Y-60016666D02*
X58032380Y-59992857D01*
X58056190Y-59921428D01*
X58056190Y-59873809D01*
X58032380Y-59802380D01*
X57984761Y-59754761D01*
X57937142Y-59730952D01*
X57841904Y-59707142D01*
X57770476Y-59707142D01*
X57675238Y-59730952D01*
X57627619Y-59754761D01*
X57580000Y-59802380D01*
X57556190Y-59873809D01*
X57556190Y-59921428D01*
X57580000Y-59992857D01*
X57603809Y-60016666D01*
X57603809Y-60207142D02*
X57580000Y-60230952D01*
X57556190Y-60278571D01*
X57556190Y-60397619D01*
X57580000Y-60445238D01*
X57603809Y-60469047D01*
X57651428Y-60492857D01*
X57699047Y-60492857D01*
X57770476Y-60469047D01*
X58056190Y-60183333D01*
X58056190Y-60492857D01*
D15*
X55330952Y-59414285D02*
X55330952Y-59452380D01*
X55350000Y-59490476D01*
X55369047Y-59509523D01*
X55407142Y-59528571D01*
X55483333Y-59547619D01*
X55578571Y-59547619D01*
X55654761Y-59528571D01*
X55692857Y-59509523D01*
X55711904Y-59490476D01*
X55730952Y-59452380D01*
X55730952Y-59414285D01*
X55711904Y-59376190D01*
X55692857Y-59357142D01*
X55654761Y-59338095D01*
X55578571Y-59319047D01*
X55483333Y-59319047D01*
X55407142Y-59338095D01*
X55369047Y-59357142D01*
X55350000Y-59376190D01*
X55330952Y-59414285D01*
X55711904Y-59738095D02*
X55730952Y-59738095D01*
X55769047Y-59719047D01*
X55788095Y-59700000D01*
X55730952Y-60119047D02*
X55730952Y-59890476D01*
X55730952Y-60004761D02*
X55330952Y-60004761D01*
X55388095Y-59966666D01*
X55426190Y-59928571D01*
X55445238Y-59890476D01*
X55464285Y-60290476D02*
X55864285Y-60290476D01*
X55673809Y-60480952D02*
X55711904Y-60500000D01*
X55730952Y-60538095D01*
X55673809Y-60290476D02*
X55711904Y-60309523D01*
X55730952Y-60347619D01*
X55730952Y-60423809D01*
X55711904Y-60461904D01*
X55673809Y-60480952D01*
X55464285Y-60480952D01*
X55521428Y-60842857D02*
X55521428Y-60709523D01*
X55730952Y-60709523D02*
X55330952Y-60709523D01*
X55330952Y-60900000D01*
%TO.C,D1*%
X58050952Y-53884761D02*
X57650952Y-53884761D01*
X57650952Y-53980000D01*
X57670000Y-54037142D01*
X57708095Y-54075238D01*
X57746190Y-54094285D01*
X57822380Y-54113333D01*
X57879523Y-54113333D01*
X57955714Y-54094285D01*
X57993809Y-54075238D01*
X58031904Y-54037142D01*
X58050952Y-53980000D01*
X58050952Y-53884761D01*
X58050952Y-54494285D02*
X58050952Y-54265714D01*
X58050952Y-54380000D02*
X57650952Y-54380000D01*
X57708095Y-54341904D01*
X57746190Y-54303809D01*
X57765238Y-54265714D01*
X55670952Y-53772857D02*
X55670952Y-53582380D01*
X55270952Y-53582380D01*
X55461428Y-53906190D02*
X55461428Y-54039523D01*
X55670952Y-54096666D02*
X55670952Y-53906190D01*
X55270952Y-53906190D01*
X55270952Y-54096666D01*
X55670952Y-54268095D02*
X55270952Y-54268095D01*
X55270952Y-54363333D01*
X55290000Y-54420476D01*
X55328095Y-54458571D01*
X55366190Y-54477619D01*
X55442380Y-54496666D01*
X55499523Y-54496666D01*
X55575714Y-54477619D01*
X55613809Y-54458571D01*
X55651904Y-54420476D01*
X55670952Y-54363333D01*
X55670952Y-54268095D01*
%TO.C,J1*%
D17*
X53030000Y-50489285D02*
X53030000Y-51025000D01*
X53065714Y-51132142D01*
X53137142Y-51203571D01*
X53244285Y-51239285D01*
X53315714Y-51239285D01*
X52280000Y-51239285D02*
X52708571Y-51239285D01*
X52494285Y-51239285D02*
X52494285Y-50489285D01*
X52565714Y-50596428D01*
X52637142Y-50667857D01*
X52708571Y-50703571D01*
%TO.C,J2*%
X63620000Y-50539285D02*
X63620000Y-51075000D01*
X63655714Y-51182142D01*
X63727142Y-51253571D01*
X63834285Y-51289285D01*
X63905714Y-51289285D01*
X63298571Y-50610714D02*
X63262857Y-50575000D01*
X63191428Y-50539285D01*
X63012857Y-50539285D01*
X62941428Y-50575000D01*
X62905714Y-50610714D01*
X62870000Y-50682142D01*
X62870000Y-50753571D01*
X62905714Y-50860714D01*
X63334285Y-51289285D01*
X62870000Y-51289285D01*
%TO.C,R1*%
D15*
X57980952Y-57883333D02*
X57790476Y-57750000D01*
X57980952Y-57654761D02*
X57580952Y-57654761D01*
X57580952Y-57807142D01*
X57600000Y-57845238D01*
X57619047Y-57864285D01*
X57657142Y-57883333D01*
X57714285Y-57883333D01*
X57752380Y-57864285D01*
X57771428Y-57845238D01*
X57790476Y-57807142D01*
X57790476Y-57654761D01*
X57980952Y-58264285D02*
X57980952Y-58035714D01*
X57980952Y-58150000D02*
X57580952Y-58150000D01*
X57638095Y-58111904D01*
X57676190Y-58073809D01*
X57695238Y-58035714D01*
X55524285Y-57765714D02*
X55790952Y-57765714D01*
X55371904Y-57670476D02*
X55657619Y-57575238D01*
X55657619Y-57822857D01*
X55390952Y-57937142D02*
X55390952Y-58203809D01*
X55790952Y-58032380D01*
X55790952Y-58356190D02*
X55390952Y-58356190D01*
X55790952Y-58584761D02*
X55562380Y-58413333D01*
X55390952Y-58584761D02*
X55619523Y-58356190D01*
%TO.C,R2*%
X58010952Y-55933333D02*
X57820476Y-55800000D01*
X58010952Y-55704761D02*
X57610952Y-55704761D01*
X57610952Y-55857142D01*
X57630000Y-55895238D01*
X57649047Y-55914285D01*
X57687142Y-55933333D01*
X57744285Y-55933333D01*
X57782380Y-55914285D01*
X57801428Y-55895238D01*
X57820476Y-55857142D01*
X57820476Y-55704761D01*
X57649047Y-56085714D02*
X57630000Y-56104761D01*
X57610952Y-56142857D01*
X57610952Y-56238095D01*
X57630000Y-56276190D01*
X57649047Y-56295238D01*
X57687142Y-56314285D01*
X57725238Y-56314285D01*
X57782380Y-56295238D01*
X58010952Y-56066666D01*
X58010952Y-56314285D01*
X55330952Y-55774761D02*
X55330952Y-55584285D01*
X55521428Y-55565238D01*
X55502380Y-55584285D01*
X55483333Y-55622380D01*
X55483333Y-55717619D01*
X55502380Y-55755714D01*
X55521428Y-55774761D01*
X55559523Y-55793809D01*
X55654761Y-55793809D01*
X55692857Y-55774761D01*
X55711904Y-55755714D01*
X55730952Y-55717619D01*
X55730952Y-55622380D01*
X55711904Y-55584285D01*
X55692857Y-55565238D01*
X55730952Y-56193809D02*
X55540476Y-56060476D01*
X55730952Y-55965238D02*
X55330952Y-55965238D01*
X55330952Y-56117619D01*
X55350000Y-56155714D01*
X55369047Y-56174761D01*
X55407142Y-56193809D01*
X55464285Y-56193809D01*
X55502380Y-56174761D01*
X55521428Y-56155714D01*
X55540476Y-56117619D01*
X55540476Y-55965238D01*
X55730952Y-56574761D02*
X55730952Y-56346190D01*
X55730952Y-56460476D02*
X55330952Y-56460476D01*
X55388095Y-56422380D01*
X55426190Y-56384285D01*
X55445238Y-56346190D01*
%TD*%
M02*
