%TF.GenerationSoftware,KiCad,Pcbnew,(5.1.8)-1*%
%TF.CreationDate,2021-04-09T20:26:06+02:00*%
%TF.ProjectId,attnode_v3_micro,6174746e-6f64-4655-9f76-335f6d696372,rev?*%
%TF.SameCoordinates,Original*%
%TF.FileFunction,Copper,L2,Bot*%
%TF.FilePolarity,Positive*%
%FSLAX46Y46*%
G04 Gerber Fmt 4.6, Leading zero omitted, Abs format (unit mm)*
G04 Created by KiCad (PCBNEW (5.1.8)-1) date 2021-04-09 20:26:06*
%MOMM*%
%LPD*%
G01*
G04 APERTURE LIST*
%TA.AperFunction,ComponentPad*%
%ADD10O,1.700000X1.700000*%
%TD*%
%TA.AperFunction,ComponentPad*%
%ADD11R,1.700000X1.700000*%
%TD*%
%TA.AperFunction,ComponentPad*%
%ADD12R,1.350000X1.350000*%
%TD*%
%TA.AperFunction,ComponentPad*%
%ADD13O,1.350000X1.350000*%
%TD*%
%TA.AperFunction,ViaPad*%
%ADD14C,0.800000*%
%TD*%
%TA.AperFunction,Conductor*%
%ADD15C,0.250000*%
%TD*%
G04 APERTURE END LIST*
%TO.P,PRG1.1,1*%
%TO.N,RST*%
%TA.AperFunction,SMDPad,CuDef*%
G36*
G01*
X55050500Y-50250000D02*
X56349500Y-50250000D01*
G75*
G02*
X56450000Y-50350500I0J-100500D01*
G01*
X56450000Y-52649500D01*
G75*
G02*
X56349500Y-52750000I-100500J0D01*
G01*
X55050500Y-52750000D01*
G75*
G02*
X54950000Y-52649500I0J100500D01*
G01*
X54950000Y-50350500D01*
G75*
G02*
X55050500Y-50250000I100500J0D01*
G01*
G37*
%TD.AperFunction*%
%TD*%
%TO.P,PRG1.2,1*%
%TO.N,RX*%
%TA.AperFunction,SMDPad,CuDef*%
G36*
G01*
X57280500Y-50210000D02*
X58579500Y-50210000D01*
G75*
G02*
X58680000Y-50310500I0J-100500D01*
G01*
X58680000Y-52609500D01*
G75*
G02*
X58579500Y-52710000I-100500J0D01*
G01*
X57280500Y-52710000D01*
G75*
G02*
X57180000Y-52609500I0J100500D01*
G01*
X57180000Y-50310500D01*
G75*
G02*
X57280500Y-50210000I100500J0D01*
G01*
G37*
%TD.AperFunction*%
%TD*%
%TO.P,PRG1.3,1*%
%TO.N,TX*%
%TA.AperFunction,SMDPad,CuDef*%
G36*
G01*
X59470500Y-50210000D02*
X60769500Y-50210000D01*
G75*
G02*
X60870000Y-50310500I0J-100500D01*
G01*
X60870000Y-52609500D01*
G75*
G02*
X60769500Y-52710000I-100500J0D01*
G01*
X59470500Y-52710000D01*
G75*
G02*
X59370000Y-52609500I0J100500D01*
G01*
X59370000Y-50310500D01*
G75*
G02*
X59470500Y-50210000I100500J0D01*
G01*
G37*
%TD.AperFunction*%
%TD*%
D10*
%TO.P,J3,4*%
%TO.N,SDA*%
X54330000Y-64930000D03*
%TO.P,J3,3*%
%TO.N,SCL*%
X56870000Y-64930000D03*
%TO.P,J3,2*%
%TO.N,GND*%
X59410000Y-64930000D03*
D11*
%TO.P,J3,1*%
%TO.N,+3V3*%
X61950000Y-64930000D03*
%TD*%
%TO.P,C1,1*%
%TO.N,+3V3*%
%TA.AperFunction,SMDPad,CuDef*%
G36*
G01*
X59425000Y-61745000D02*
X59425000Y-62695000D01*
G75*
G02*
X59175000Y-62945000I-250000J0D01*
G01*
X58500000Y-62945000D01*
G75*
G02*
X58250000Y-62695000I0J250000D01*
G01*
X58250000Y-61745000D01*
G75*
G02*
X58500000Y-61495000I250000J0D01*
G01*
X59175000Y-61495000D01*
G75*
G02*
X59425000Y-61745000I0J-250000D01*
G01*
G37*
%TD.AperFunction*%
%TO.P,C1,2*%
%TO.N,GND*%
%TA.AperFunction,SMDPad,CuDef*%
G36*
G01*
X57350000Y-61745000D02*
X57350000Y-62695000D01*
G75*
G02*
X57100000Y-62945000I-250000J0D01*
G01*
X56425000Y-62945000D01*
G75*
G02*
X56175000Y-62695000I0J250000D01*
G01*
X56175000Y-61745000D01*
G75*
G02*
X56425000Y-61495000I250000J0D01*
G01*
X57100000Y-61495000D01*
G75*
G02*
X57350000Y-61745000I0J-250000D01*
G01*
G37*
%TD.AperFunction*%
%TD*%
%TO.P,C2,2*%
%TO.N,GND*%
%TA.AperFunction,SMDPad,CuDef*%
G36*
G01*
X57350000Y-59625000D02*
X57350000Y-60575000D01*
G75*
G02*
X57100000Y-60825000I-250000J0D01*
G01*
X56425000Y-60825000D01*
G75*
G02*
X56175000Y-60575000I0J250000D01*
G01*
X56175000Y-59625000D01*
G75*
G02*
X56425000Y-59375000I250000J0D01*
G01*
X57100000Y-59375000D01*
G75*
G02*
X57350000Y-59625000I0J-250000D01*
G01*
G37*
%TD.AperFunction*%
%TO.P,C2,1*%
%TO.N,+3V3*%
%TA.AperFunction,SMDPad,CuDef*%
G36*
G01*
X59425000Y-59625000D02*
X59425000Y-60575000D01*
G75*
G02*
X59175000Y-60825000I-250000J0D01*
G01*
X58500000Y-60825000D01*
G75*
G02*
X58250000Y-60575000I0J250000D01*
G01*
X58250000Y-59625000D01*
G75*
G02*
X58500000Y-59375000I250000J0D01*
G01*
X59175000Y-59375000D01*
G75*
G02*
X59425000Y-59625000I0J-250000D01*
G01*
G37*
%TD.AperFunction*%
%TD*%
%TO.P,D1,1*%
%TO.N,GND*%
%TA.AperFunction,SMDPad,CuDef*%
G36*
G01*
X56200000Y-54510001D02*
X56200000Y-53609999D01*
G75*
G02*
X56449999Y-53360000I249999J0D01*
G01*
X57100001Y-53360000D01*
G75*
G02*
X57350000Y-53609999I0J-249999D01*
G01*
X57350000Y-54510001D01*
G75*
G02*
X57100001Y-54760000I-249999J0D01*
G01*
X56449999Y-54760000D01*
G75*
G02*
X56200000Y-54510001I0J249999D01*
G01*
G37*
%TD.AperFunction*%
%TO.P,D1,2*%
%TO.N,Net-(D1-Pad2)*%
%TA.AperFunction,SMDPad,CuDef*%
G36*
G01*
X58250000Y-54510001D02*
X58250000Y-53609999D01*
G75*
G02*
X58499999Y-53360000I249999J0D01*
G01*
X59150001Y-53360000D01*
G75*
G02*
X59400000Y-53609999I0J-249999D01*
G01*
X59400000Y-54510001D01*
G75*
G02*
X59150001Y-54760000I-249999J0D01*
G01*
X58499999Y-54760000D01*
G75*
G02*
X58250000Y-54510001I0J249999D01*
G01*
G37*
%TD.AperFunction*%
%TD*%
D12*
%TO.P,J1,1*%
%TO.N,GND*%
X50800000Y-65000000D03*
D13*
%TO.P,J1,2*%
%TO.N,N/C*%
X50800000Y-63000000D03*
%TO.P,J1,3*%
X50800000Y-61000000D03*
%TO.P,J1,4*%
%TO.N,NSS*%
X50800000Y-59000000D03*
%TO.P,J1,5*%
%TO.N,SCK*%
X50800000Y-57000000D03*
%TO.P,J1,6*%
%TO.N,MOSI*%
X50800000Y-55000000D03*
%TO.P,J1,7*%
%TO.N,MISO*%
X50800000Y-53000000D03*
%TO.P,J1,8*%
%TO.N,GND*%
X50800000Y-51000000D03*
%TD*%
%TO.P,J2,8*%
%TO.N,N/C*%
X65200000Y-51000000D03*
%TO.P,J2,7*%
%TO.N,DIO1*%
X65200000Y-53000000D03*
%TO.P,J2,6*%
%TO.N,DIO0*%
X65200000Y-55000000D03*
%TO.P,J2,5*%
%TO.N,+3V3*%
X65200000Y-57000000D03*
%TO.P,J2,4*%
%TO.N,N/C*%
X65200000Y-59000000D03*
%TO.P,J2,3*%
X65200000Y-61000000D03*
%TO.P,J2,2*%
%TO.N,GND*%
X65200000Y-63000000D03*
D12*
%TO.P,J2,1*%
%TO.N,N/C*%
X65200000Y-65000000D03*
%TD*%
%TO.P,R1,1*%
%TO.N,NSS*%
%TA.AperFunction,SMDPad,CuDef*%
G36*
G01*
X56210000Y-58500001D02*
X56210000Y-57599999D01*
G75*
G02*
X56459999Y-57350000I249999J0D01*
G01*
X57160001Y-57350000D01*
G75*
G02*
X57410000Y-57599999I0J-249999D01*
G01*
X57410000Y-58500001D01*
G75*
G02*
X57160001Y-58750000I-249999J0D01*
G01*
X56459999Y-58750000D01*
G75*
G02*
X56210000Y-58500001I0J249999D01*
G01*
G37*
%TD.AperFunction*%
%TO.P,R1,2*%
%TO.N,+3V3*%
%TA.AperFunction,SMDPad,CuDef*%
G36*
G01*
X58210000Y-58500001D02*
X58210000Y-57599999D01*
G75*
G02*
X58459999Y-57350000I249999J0D01*
G01*
X59160001Y-57350000D01*
G75*
G02*
X59410000Y-57599999I0J-249999D01*
G01*
X59410000Y-58500001D01*
G75*
G02*
X59160001Y-58750000I-249999J0D01*
G01*
X58459999Y-58750000D01*
G75*
G02*
X58210000Y-58500001I0J249999D01*
G01*
G37*
%TD.AperFunction*%
%TD*%
%TO.P,R2,2*%
%TO.N,LED*%
%TA.AperFunction,SMDPad,CuDef*%
G36*
G01*
X58210000Y-56480001D02*
X58210000Y-55579999D01*
G75*
G02*
X58459999Y-55330000I249999J0D01*
G01*
X59160001Y-55330000D01*
G75*
G02*
X59410000Y-55579999I0J-249999D01*
G01*
X59410000Y-56480001D01*
G75*
G02*
X59160001Y-56730000I-249999J0D01*
G01*
X58459999Y-56730000D01*
G75*
G02*
X58210000Y-56480001I0J249999D01*
G01*
G37*
%TD.AperFunction*%
%TO.P,R2,1*%
%TO.N,Net-(D1-Pad2)*%
%TA.AperFunction,SMDPad,CuDef*%
G36*
G01*
X56210000Y-56480001D02*
X56210000Y-55579999D01*
G75*
G02*
X56459999Y-55330000I249999J0D01*
G01*
X57160001Y-55330000D01*
G75*
G02*
X57410000Y-55579999I0J-249999D01*
G01*
X57410000Y-56480001D01*
G75*
G02*
X57160001Y-56730000I-249999J0D01*
G01*
X56459999Y-56730000D01*
G75*
G02*
X56210000Y-56480001I0J249999D01*
G01*
G37*
%TD.AperFunction*%
%TD*%
D14*
%TO.N,+3V3*%
X58803750Y-62253750D03*
%TO.N,Net-(D1-Pad2)*%
X58830000Y-53960000D03*
X56760000Y-56140000D03*
%TO.N,RST*%
X55290000Y-56500000D03*
X53600000Y-57470000D03*
X55740000Y-51580000D03*
%TO.N,NSS*%
X56810000Y-58050000D03*
%TO.N,SCL*%
X55460000Y-63540000D03*
%TO.N,SDA*%
X62370000Y-50810000D03*
X60340000Y-60670000D03*
%TO.N,TX*%
X60020000Y-51470000D03*
%TO.N,RX*%
X58060000Y-51440000D03*
%TO.N,LED*%
X58900000Y-56170000D03*
%TD*%
D15*
%TO.N,GND*%
X56762500Y-62220000D02*
X56762500Y-60100000D01*
X57735010Y-55020010D02*
X56775000Y-54060000D01*
X57735010Y-59127490D02*
X57735010Y-55020010D01*
X56762500Y-60100000D02*
X57735010Y-59127490D01*
X53860000Y-54060000D02*
X50800000Y-51000000D01*
X56775000Y-54060000D02*
X53860000Y-54060000D01*
X50800000Y-64480002D02*
X50800000Y-65000000D01*
X53060002Y-62220000D02*
X50800000Y-64480002D01*
X56762500Y-62220000D02*
X53060002Y-62220000D01*
X61340000Y-63000000D02*
X59410000Y-64930000D01*
X65200000Y-63000000D02*
X61340000Y-63000000D01*
X57211810Y-62220000D02*
X56762500Y-62220000D01*
X59410000Y-64418190D02*
X57211810Y-62220000D01*
X59410000Y-64930000D02*
X59410000Y-64418190D01*
%TO.N,+3V3*%
X59980000Y-62220000D02*
X65200000Y-57000000D01*
X58837500Y-62220000D02*
X59980000Y-62220000D01*
X58837500Y-62220000D02*
X58837500Y-60100000D01*
X58837500Y-58077500D02*
X58810000Y-58050000D01*
X58837500Y-60100000D02*
X58837500Y-58077500D01*
X58803750Y-62253750D02*
X58837500Y-62220000D01*
%TO.N,RST*%
X54570000Y-56500000D02*
X53600000Y-57470000D01*
X55290000Y-56500000D02*
X54570000Y-56500000D01*
%TO.N,NSS*%
X55860000Y-59000000D02*
X56810000Y-58050000D01*
X50800000Y-59000000D02*
X55860000Y-59000000D01*
X56810000Y-58050000D02*
X56810000Y-58050000D01*
%TO.N,SCL*%
X56850000Y-64930000D02*
X55460000Y-63540000D01*
X56870000Y-64930000D02*
X56850000Y-64930000D01*
%TO.N,SDA*%
X62370000Y-50810000D02*
X62370000Y-58640000D01*
X62370000Y-58640000D02*
X60340000Y-60670000D01*
X60340000Y-60670000D02*
X60340000Y-60670000D01*
%TD*%
M02*
