%TF.GenerationSoftware,KiCad,Pcbnew,(5.1.8)-1*%
%TF.CreationDate,2021-05-10T08:32:55+02:00*%
%TF.ProjectId,attnode_v3_micro,6174746e-6f64-4655-9f76-335f6d696372,rev?*%
%TF.SameCoordinates,Original*%
%TF.FileFunction,Paste,Bot*%
%TF.FilePolarity,Positive*%
%FSLAX46Y46*%
G04 Gerber Fmt 4.6, Leading zero omitted, Abs format (unit mm)*
G04 Created by KiCad (PCBNEW (5.1.8)-1) date 2021-05-10 08:32:55*
%MOMM*%
%LPD*%
G01*
G04 APERTURE LIST*
G04 APERTURE END LIST*
%TO.C,C1*%
G36*
G01*
X59425000Y-61745000D02*
X59425000Y-62695000D01*
G75*
G02*
X59175000Y-62945000I-250000J0D01*
G01*
X58500000Y-62945000D01*
G75*
G02*
X58250000Y-62695000I0J250000D01*
G01*
X58250000Y-61745000D01*
G75*
G02*
X58500000Y-61495000I250000J0D01*
G01*
X59175000Y-61495000D01*
G75*
G02*
X59425000Y-61745000I0J-250000D01*
G01*
G37*
G36*
G01*
X57350000Y-61745000D02*
X57350000Y-62695000D01*
G75*
G02*
X57100000Y-62945000I-250000J0D01*
G01*
X56425000Y-62945000D01*
G75*
G02*
X56175000Y-62695000I0J250000D01*
G01*
X56175000Y-61745000D01*
G75*
G02*
X56425000Y-61495000I250000J0D01*
G01*
X57100000Y-61495000D01*
G75*
G02*
X57350000Y-61745000I0J-250000D01*
G01*
G37*
%TD*%
%TO.C,C2*%
G36*
G01*
X57350000Y-59625000D02*
X57350000Y-60575000D01*
G75*
G02*
X57100000Y-60825000I-250000J0D01*
G01*
X56425000Y-60825000D01*
G75*
G02*
X56175000Y-60575000I0J250000D01*
G01*
X56175000Y-59625000D01*
G75*
G02*
X56425000Y-59375000I250000J0D01*
G01*
X57100000Y-59375000D01*
G75*
G02*
X57350000Y-59625000I0J-250000D01*
G01*
G37*
G36*
G01*
X59425000Y-59625000D02*
X59425000Y-60575000D01*
G75*
G02*
X59175000Y-60825000I-250000J0D01*
G01*
X58500000Y-60825000D01*
G75*
G02*
X58250000Y-60575000I0J250000D01*
G01*
X58250000Y-59625000D01*
G75*
G02*
X58500000Y-59375000I250000J0D01*
G01*
X59175000Y-59375000D01*
G75*
G02*
X59425000Y-59625000I0J-250000D01*
G01*
G37*
%TD*%
%TO.C,D1*%
G36*
G01*
X56200000Y-54510001D02*
X56200000Y-53609999D01*
G75*
G02*
X56449999Y-53360000I249999J0D01*
G01*
X57100001Y-53360000D01*
G75*
G02*
X57350000Y-53609999I0J-249999D01*
G01*
X57350000Y-54510001D01*
G75*
G02*
X57100001Y-54760000I-249999J0D01*
G01*
X56449999Y-54760000D01*
G75*
G02*
X56200000Y-54510001I0J249999D01*
G01*
G37*
G36*
G01*
X58250000Y-54510001D02*
X58250000Y-53609999D01*
G75*
G02*
X58499999Y-53360000I249999J0D01*
G01*
X59150001Y-53360000D01*
G75*
G02*
X59400000Y-53609999I0J-249999D01*
G01*
X59400000Y-54510001D01*
G75*
G02*
X59150001Y-54760000I-249999J0D01*
G01*
X58499999Y-54760000D01*
G75*
G02*
X58250000Y-54510001I0J249999D01*
G01*
G37*
%TD*%
%TO.C,R1*%
G36*
G01*
X56210000Y-58500001D02*
X56210000Y-57599999D01*
G75*
G02*
X56459999Y-57350000I249999J0D01*
G01*
X57160001Y-57350000D01*
G75*
G02*
X57410000Y-57599999I0J-249999D01*
G01*
X57410000Y-58500001D01*
G75*
G02*
X57160001Y-58750000I-249999J0D01*
G01*
X56459999Y-58750000D01*
G75*
G02*
X56210000Y-58500001I0J249999D01*
G01*
G37*
G36*
G01*
X58210000Y-58500001D02*
X58210000Y-57599999D01*
G75*
G02*
X58459999Y-57350000I249999J0D01*
G01*
X59160001Y-57350000D01*
G75*
G02*
X59410000Y-57599999I0J-249999D01*
G01*
X59410000Y-58500001D01*
G75*
G02*
X59160001Y-58750000I-249999J0D01*
G01*
X58459999Y-58750000D01*
G75*
G02*
X58210000Y-58500001I0J249999D01*
G01*
G37*
%TD*%
%TO.C,R2*%
G36*
G01*
X58210000Y-56480001D02*
X58210000Y-55579999D01*
G75*
G02*
X58459999Y-55330000I249999J0D01*
G01*
X59160001Y-55330000D01*
G75*
G02*
X59410000Y-55579999I0J-249999D01*
G01*
X59410000Y-56480001D01*
G75*
G02*
X59160001Y-56730000I-249999J0D01*
G01*
X58459999Y-56730000D01*
G75*
G02*
X58210000Y-56480001I0J249999D01*
G01*
G37*
G36*
G01*
X56210000Y-56480001D02*
X56210000Y-55579999D01*
G75*
G02*
X56459999Y-55330000I249999J0D01*
G01*
X57160001Y-55330000D01*
G75*
G02*
X57410000Y-55579999I0J-249999D01*
G01*
X57410000Y-56480001D01*
G75*
G02*
X57160001Y-56730000I-249999J0D01*
G01*
X56459999Y-56730000D01*
G75*
G02*
X56210000Y-56480001I0J249999D01*
G01*
G37*
%TD*%
M02*
