M48
; DRILL file {KiCad (5.1.8)-1} date 05/10/21 08:25:09
; FORMAT={-:-/ absolute / inch / decimal}
; #@! TF.CreationDate,2021-05-10T08:25:09+02:00
; #@! TF.GenerationSoftware,Kicad,Pcbnew,(5.1.8)-1
FMAT,2
INCH
T1C0.0157
T2C0.0315
T3C0.0394
%
G90
G05
T1
X2.1102Y-2.2626
X2.1768Y-2.2244
X2.1835Y-2.5016
X2.1945Y-2.0307
X2.2346Y-2.2102
X2.2366Y-2.2854
X2.2858Y-2.0252
X2.3151Y-2.4509
X2.3161Y-2.1244
X2.3189Y-2.2114
X2.363Y-2.0264
X2.3756Y-2.3886
X2.4555Y-2.0004
T2
X2.5669Y-2.0079
X2.5669Y-2.0866
X2.5669Y-2.1654
X2.5669Y-2.2441
X2.5669Y-2.3228
X2.5669Y-2.4016
X2.5669Y-2.4803
X2.5669Y-2.5591
X2.0Y-2.0079
X2.0Y-2.0866
X2.0Y-2.1654
X2.0Y-2.2441
X2.0Y-2.3228
X2.0Y-2.4016
X2.0Y-2.4803
X2.0Y-2.5591
T3
X2.139Y-2.5563
X2.239Y-2.5563
X2.339Y-2.5563
X2.439Y-2.5563
T0
M30
