%TF.GenerationSoftware,KiCad,Pcbnew,(5.1.8)-1*%
%TF.CreationDate,2021-05-26T13:43:35+02:00*%
%TF.ProjectId,attnode_v3_micro,6174746e-6f64-4655-9f76-335f6d696372,rev?*%
%TF.SameCoordinates,Original*%
%TF.FileFunction,Legend,Top*%
%TF.FilePolarity,Positive*%
%FSLAX46Y46*%
G04 Gerber Fmt 4.6, Leading zero omitted, Abs format (unit mm)*
G04 Created by KiCad (PCBNEW (5.1.8)-1) date 2021-05-26 13:43:35*
%MOMM*%
%LPD*%
G01*
G04 APERTURE LIST*
%ADD10C,0.060000*%
%ADD11C,0.120000*%
%ADD12C,0.070000*%
G04 APERTURE END LIST*
D10*
X63707142Y-64980000D02*
X63992857Y-64980000D01*
X63650000Y-65151428D02*
X63850000Y-64551428D01*
X64050000Y-65151428D01*
D11*
X63618102Y-62310000D02*
G75*
G03*
X63618102Y-62310000I-78102J0D01*
G01*
%TO.C,U1*%
X61870000Y-62930000D02*
X63260000Y-62930000D01*
X61870000Y-63160000D02*
X61870000Y-62925000D01*
X58010000Y-63160000D02*
X61870000Y-63160000D01*
X54150000Y-63160000D02*
X54150000Y-62925000D01*
X58010000Y-63160000D02*
X54150000Y-63160000D01*
X61870000Y-50140000D02*
X61870000Y-50375000D01*
X58010000Y-50140000D02*
X61870000Y-50140000D01*
X54150000Y-50140000D02*
X54150000Y-50375000D01*
X58010000Y-50140000D02*
X54150000Y-50140000D01*
%TO.C,J1*%
X51860000Y-66060000D02*
X50800000Y-66060000D01*
X51860000Y-65000000D02*
X51860000Y-66060000D01*
X51860000Y-64000000D02*
X49740000Y-64000000D01*
X49740000Y-64000000D02*
X49740000Y-49940000D01*
X51860000Y-64000000D02*
X51860000Y-49940000D01*
X51860000Y-49940000D02*
X49740000Y-49940000D01*
%TO.C,J2*%
X66260000Y-49940000D02*
X64140000Y-49940000D01*
X66260000Y-64000000D02*
X66260000Y-49940000D01*
X64140000Y-64000000D02*
X64140000Y-49940000D01*
X66260000Y-64000000D02*
X64140000Y-64000000D01*
X66260000Y-65000000D02*
X66260000Y-66060000D01*
X66260000Y-66060000D02*
X65200000Y-66060000D01*
%TO.C,U1*%
D12*
X57566666Y-63306666D02*
X57566666Y-63873333D01*
X57600000Y-63940000D01*
X57633333Y-63973333D01*
X57700000Y-64006666D01*
X57833333Y-64006666D01*
X57900000Y-63973333D01*
X57933333Y-63940000D01*
X57966666Y-63873333D01*
X57966666Y-63306666D01*
X58666666Y-64006666D02*
X58266666Y-64006666D01*
X58466666Y-64006666D02*
X58466666Y-63306666D01*
X58400000Y-63406666D01*
X58333333Y-63473333D01*
X58266666Y-63506666D01*
%TD*%
M02*
